<?xml version="1.0" encoding="UTF-8"?>
<svg width="132.81mm" height="104.09mm" version="1.1" viewBox="0 0 132.81 104.09" xmlns="http://www.w3.org/2000/svg">
 <g transform="translate(-18.82 -29.168)">
  <path d="m18.82 29.168s0.7869 30.929 4.3241 45.856c4.8109 20.303 22.696 58.237 22.696 58.237h45.938s13.112-25.075 20.784-45.451c9.9915 5.7216 22.784 4.2202 31.164-3.9159 8.9144-8.6551 10.476-22.524 3.7104-32.946-5.8315-8.9829-16.52-13.341-26.747-11.418 0.28467-6.0944 0.36317-10.363 0.36317-10.363zm11.047 6.1765c0.09566-5e-3 0.19147-5e-3 0.28713 0 1.5133 0.0677 2.7161 1.2951 2.7532 2.8095 0 0 0.95254 22.161 3.198 32.163 2.9641 13.203 14.157 39.719 14.157 39.719 1.6649 3.5996-3.8667 5.9514-5.3038 2.2549 0 0-11.212-26.146-14.481-40.71-2.551-11.363-3.3332-33.202-3.3332-33.202-0.08611-1.5897 1.1326-2.9483 2.7223-3.0347zm95.313 18.121c3.9975-0.13897 7.8695 1.7907 10.168 5.3319 3.0652 4.7217 2.3751 10.836-1.6638 14.757s-10.17 4.4278-14.799 1.2246c-0.57719-0.41082-1.2118-0.73429-1.8834-0.95998 1.2204-5.2777 2.0775-12.212 2.68-19.078 0.51811-0.0881 1.025-0.23248 1.5118-0.43075 1.3064-0.52325 2.6538-0.79824 3.9863-0.84455z" color="#000000" color-rendering="auto" fill="#fff" image-rendering="auto" shape-rendering="auto" solid-color="#000000" style="isolation:auto;mix-blend-mode:normal;text-decoration-color:#000000;text-decoration-line:none;text-decoration-style:solid;text-indent:0;text-transform:none;white-space:normal"/>
 </g>
</svg>
