<?xml version="1.0" encoding="UTF-8" standalone="no"?><!-- Generator: Gravit.io --><svg xmlns="http://www.w3.org/2000/svg" xmlns:xlink="http://www.w3.org/1999/xlink" style="isolation:isolate" viewBox="0 0 438.403 80" width="438.403pt" height="80pt"><defs><clipPath id="_clipPath_vdbFmgDqe1qAhIrfn95Yrbvv1v2hk0hv"><rect width="438.403" height="80"/></clipPath></defs><g clip-path="url(#_clipPath_vdbFmgDqe1qAhIrfn95Yrbvv1v2hk0hv)"><rect width="438.403" height="80" style="fill:rgb(0,0,0)" fill-opacity="0"/><path d=" M 14.004 0.002 C 13.628 0.036 12.777 0.633 11.435 1.795 C 9.74 3.263 9.263 4.085 9.263 5.538 C 9.263 7.105 9.861 7.957 13.039 10.914 C 17.03 14.628 17.647 16.194 15.986 18.395 C 15.528 19.001 15.146 19.695 15.136 19.937 C 15.103 20.741 18.398 18.692 19.601 17.161 C 21.733 14.445 21.267 13.552 14.659 7.671 C 12.636 5.871 12.376 4.185 13.717 1.589 C 14.28 0.497 14.38 -0.032 14.004 0.002 L 14.004 0.002 Z  M 21.71 0.002 C 21.334 0.036 20.483 0.633 19.141 1.795 C 17.446 3.263 16.969 4.085 16.969 5.538 C 16.969 7.105 17.567 7.957 20.745 10.914 C 24.736 14.628 25.354 16.194 23.692 18.395 C 23.234 19.001 22.852 19.695 22.842 19.937 C 22.809 20.741 26.105 18.692 27.307 17.161 C 29.439 14.445 28.973 13.552 22.365 7.671 C 20.342 5.871 20.081 4.185 21.421 1.589 C 21.985 0.497 22.086 -0.032 21.71 0.002 L 21.71 0.002 Z  M 29.416 0.002 C 29.041 0.036 28.188 0.633 26.846 1.795 C 25.15 3.263 24.674 4.085 24.674 5.538 C 24.674 7.105 25.273 7.957 28.451 10.914 C 32.442 14.628 33.06 16.194 31.398 18.395 C 30.94 19.001 30.558 19.695 30.548 19.937 C 30.515 20.741 33.811 18.692 35.013 17.161 C 37.145 14.445 36.679 13.552 30.071 7.671 C 28.048 5.871 27.787 4.185 29.127 1.589 C 29.691 0.497 29.792 -0.032 29.416 0.002 L 29.416 0.002 Z  M 0 25.927 C 0 25.927 0.349 39.679 1.919 46.316 Q 4.055 55.344 10.402 68.83 C 11.28 70.696 13.668 72.211 15.73 72.211 L 28.647 72.211 C 30.709 72.211 33.159 70.727 34.113 68.899 Q 38.204 61.062 41.609 52.002 C 46.044 54.546 51.723 53.878 55.442 50.261 C 59.399 46.412 60.092 40.245 57.089 35.611 C 54.501 31.617 49.756 29.68 45.217 30.534 C 45.343 27.824 45.378 25.927 45.378 25.927 L 0 25.927 Z  M 4.903 28.673 C 4.946 28.671 4.988 28.671 5.031 28.673 C 5.702 28.703 6.236 29.249 6.253 29.922 C 6.253 29.922 6.676 39.776 7.672 44.223 C 8.988 50.094 13.956 61.884 13.956 61.884 C 14.152 62.309 14.102 62.806 13.825 63.183 C 13.549 63.559 13.089 63.755 12.627 63.693 C 12.164 63.632 11.771 63.323 11.602 62.887 C 11.602 62.887 6.626 51.261 5.174 44.785 C 4.042 39.733 3.695 30.022 3.695 30.022 C 3.657 29.315 4.198 28.711 4.903 28.673 L 4.903 28.673 Z  M 47.21 36.73 C 48.984 36.669 50.703 37.527 51.723 39.101 C 53.084 41.201 52.778 43.919 50.985 45.663 C 49.192 47.407 46.471 47.632 44.416 46.207 C 44.16 46.025 43.878 45.881 43.58 45.781 C 44.122 43.434 44.502 40.35 44.77 37.297 C 45 37.258 45.225 37.194 45.441 37.106 C 46.021 36.873 46.619 36.751 47.21 36.73 Z " fill="rgb(255,255,255)"/><path d=" M 423.928 51.237 C 424.449 50.643 425.143 50.001 426.009 49.313 C 428.664 47.103 431.143 45.998 433.445 45.998 C 434.625 45.998 435.595 46.362 436.352 47.093 C 437.108 47.822 437.488 48.76 437.488 49.907 C 437.488 52.721 436.643 55.62 434.952 58.601 C 434.481 59.476 433.935 60.342 433.317 61.196 C 432.698 62.051 431.808 63.156 430.648 64.511 C 431.358 65.781 432.167 67.062 433.074 68.354 C 433.882 69.477 434.897 70.602 436.12 71.728 C 437.174 72.667 437.935 73.545 438.403 74.36 C 435.649 78.12 433.553 80 432.117 80 C 431.074 80 429.978 79.568 428.827 78.702 C 427.676 77.837 426.599 76.669 425.595 75.199 C 424.592 73.729 423.795 72.138 423.205 70.428 C 422.615 68.719 422.319 67.092 422.319 65.549 C 422.319 64.672 422.457 64.089 422.733 63.797 C 422.85 63.671 423.117 63.463 423.529 63.17 C 426.835 61.003 428.487 58.948 428.487 57.008 C 428.487 55.988 428.064 55.476 427.219 55.476 C 426.314 55.476 425.147 56.399 423.721 58.245 C 422.294 60.089 421.002 62.348 419.84 65.016 C 419.152 66.706 418.562 67.781 418.07 68.238 C 417.617 68.656 416.919 68.865 415.975 68.865 C 414.931 68.865 414.027 68.557 413.26 67.941 C 412.493 67.326 411.896 66.451 411.475 65.313 C 411.05 64.177 410.84 62.879 410.84 61.419 C 410.84 59.167 411.105 56.706 411.636 54.036 C 412.167 51.368 412.911 48.688 413.865 45.998 C 414.818 43.307 415.955 40.679 417.273 38.115 C 418.591 35.549 419.969 33.286 421.405 31.326 C 424.238 27.531 427.002 25.633 429.697 25.633 C 431.034 25.633 432.23 25.956 433.282 26.603 C 434.335 27.249 435.147 28.167 435.717 29.355 C 436.287 30.544 436.574 31.932 436.574 33.516 C 436.574 35.455 436.12 37.39 435.215 39.318 C 434.311 41.248 433.135 42.822 431.689 44.043 C 430.243 45.262 428.792 45.872 427.336 45.872 C 426.647 45.872 426.303 45.612 426.303 45.09 C 426.303 44.883 426.48 44.391 426.835 43.62 C 428.566 39.991 429.431 35.873 429.431 31.264 C 429.431 30.075 429.293 29.481 429.019 29.481 C 428.822 29.481 428.521 29.783 428.119 30.388 C 427.716 30.994 427.327 31.733 426.952 32.608 C 424.788 37.76 423.225 43.694 422.26 50.409 C 422.201 50.764 422.137 51.233 422.068 51.816 C 421.999 52.399 421.916 53.067 421.818 53.818 L 421.936 53.943 C 422.742 52.734 423.406 51.832 423.928 51.237 Z  M 401.057 69.239 C 398.027 69.239 396.512 66.55 396.512 61.169 C 396.512 60.604 396.529 60.156 396.562 59.814 L 396.453 59.699 C 394.624 61.972 392.946 63.834 391.422 65.283 C 389.897 66.732 388.491 67.822 387.202 68.552 C 385.913 69.281 384.728 69.647 383.645 69.647 C 381.442 69.647 379.622 68.865 378.186 67.3 C 376.75 65.737 376.033 63.755 376.033 61.357 C 376.033 59.877 376.386 58.124 377.094 56.102 C 377.802 54.078 378.776 52.097 380.016 50.158 C 382.082 46.989 384.679 44.298 387.806 42.087 C 391.033 39.815 394.142 38.677 397.132 38.677 C 399.651 38.677 401.722 39.225 403.344 40.319 C 404.967 41.415 405.779 42.796 405.779 44.465 C 405.779 45.696 405.376 46.998 404.569 48.375 C 405.632 48.375 406.301 48.496 406.576 48.735 C 406.851 48.974 406.989 49.532 406.989 50.409 C 406.989 50.325 406.94 50.752 406.842 51.691 C 406.724 53.755 406.665 55.684 406.665 57.477 C 406.665 58.417 406.674 59.125 406.693 59.605 C 406.713 60.085 406.753 60.637 406.812 61.263 C 406.871 61.888 406.93 62.389 406.989 62.765 C 407.147 63.745 407.403 64.714 407.756 65.673 C 406.576 66.905 405.444 67.806 404.363 68.38 C 403.28 68.953 402.179 69.239 401.057 69.239 Z  M 398.342 52.536 L 397.781 52.723 C 396.365 53.14 395.341 53.349 394.712 53.349 C 393.945 53.349 393.561 53.14 393.561 52.723 C 393.561 52.578 393.719 52.192 394.034 51.565 C 395.135 49.794 395.687 48.125 395.687 46.56 C 395.687 45.664 395.539 44.846 395.244 44.105 C 394.949 43.365 394.624 42.995 394.269 42.995 C 393.955 42.995 393.473 43.349 392.824 44.057 C 390.994 46.165 389.543 48.324 388.471 50.534 C 387.399 52.744 386.863 54.714 386.863 56.446 C 386.863 57.593 387.084 58.542 387.527 59.292 C 387.969 60.043 388.525 60.418 389.194 60.418 C 389.764 60.418 390.832 59.773 392.396 58.479 C 393.961 57.186 395.716 55.476 397.663 53.349 L 398.461 52.661 L 398.342 52.536 Z  M 368.847 55.914 C 367.508 57.332 366.196 58.438 364.907 59.23 C 363.618 60.022 362.492 60.418 361.527 60.418 C 361.095 60.418 360.652 60.304 360.2 60.074 C 360.416 61.326 361.183 61.951 362.502 61.951 C 363.978 61.951 365.896 61.034 368.257 59.199 C 369.633 58.134 370.558 57.604 371.031 57.604 C 371.621 57.604 372.171 57.77 372.684 58.103 C 373.195 58.438 373.451 58.781 373.451 59.136 C 373.451 59.511 373.164 60.001 372.594 60.606 C 371.551 61.712 370.351 62.791 368.994 63.843 C 367.637 64.897 366.328 65.773 365.07 66.471 C 363.81 67.17 362.551 67.723 361.292 68.129 C 360.032 68.536 358.911 68.739 357.927 68.739 C 355.468 68.739 353.501 67.994 352.025 66.502 C 350.55 65.011 349.812 63.026 349.812 60.544 C 349.812 58.645 350.2 56.504 350.978 54.115 C 351.755 51.728 352.802 49.49 354.121 47.405 C 355.674 44.965 357.583 42.931 359.846 41.305 C 362.639 39.345 365.315 38.364 367.873 38.364 C 369.722 38.364 371.173 38.986 372.226 40.226 C 373.277 41.466 373.804 43.172 373.804 45.341 C 373.804 47.029 373.387 48.793 372.551 50.627 C 371.714 52.462 370.479 54.224 368.847 55.914 Z  M 365.394 42.931 C 364.764 42.931 363.8 44.402 362.502 47.342 C 361.735 49.116 361.11 50.883 360.627 52.645 C 360.145 54.407 359.905 55.924 359.905 57.196 C 359.905 57.634 359.984 58.261 360.141 59.074 C 361.045 58.427 361.735 57.781 362.207 57.133 C 363.25 55.779 364.055 54.224 364.627 52.473 C 365.079 51.326 365.434 50.044 365.688 48.625 C 365.945 47.207 366.072 45.882 366.072 44.653 C 366.072 43.506 365.846 42.931 365.394 42.931 Z  M 344.884 53.943 C 344.284 55.09 343.689 55.663 343.099 55.663 C 342.45 55.663 342.125 54.361 342.125 51.753 C 342.125 50.377 342.052 49.297 341.903 48.515 C 341.756 47.734 341.525 47.124 341.211 46.685 C 340.62 47.853 340.236 50.523 340.06 54.693 C 339.922 57.113 339.823 58.635 339.764 59.26 L 339.646 59.887 C 339.646 60.242 339.607 60.752 339.528 61.419 C 339.449 62.441 339.341 63.276 339.203 63.922 C 339.065 64.568 338.859 65.106 338.584 65.533 C 338.309 65.961 337.934 66.414 337.462 66.894 C 336.026 68.291 334.58 68.99 333.124 68.99 C 331.944 68.99 331.073 68.531 330.512 67.613 C 329.952 66.696 329.671 65.215 329.671 63.17 C 329.671 61.544 329.843 59.538 330.187 57.149 C 330.532 54.762 330.949 52.619 331.442 50.721 L 331.679 49.908 C 331.679 49.782 331.738 49.522 331.855 49.125 C 332.583 46.29 333.251 44.189 333.862 42.822 C 334.472 41.457 335.209 40.356 336.075 39.522 C 336.842 38.876 337.708 38.552 338.672 38.552 C 340.069 38.552 340.915 39.45 341.211 41.243 C 341.485 40.992 341.751 40.7 342.007 40.367 C 342.577 39.638 343.02 39.153 343.335 38.912 C 343.649 38.673 344.013 38.552 344.427 38.552 C 346.118 38.552 346.964 40.325 346.964 43.871 C 346.964 45.81 346.769 47.686 346.374 49.501 C 345.98 51.315 345.484 52.796 344.884 53.943 Z  M 322.132 43.745 C 320.341 45.164 318.65 46.102 317.056 46.56 C 316.879 46.623 316.574 46.685 316.141 46.748 L 316.141 46.905 C 323.046 47.843 326.499 50.867 326.499 55.976 C 326.499 56.998 326.338 58.062 326.013 59.167 C 325.689 60.272 325.216 61.357 324.596 62.42 C 323.977 63.485 323.233 64.454 322.369 65.329 C 320.499 67.268 318.281 69.072 315.714 70.741 C 313.146 72.41 310.563 73.755 307.967 74.776 C 305.37 75.798 303.146 76.309 301.298 76.309 C 299.742 76.309 298.252 76.121 296.827 75.747 C 295.4 75.371 294.263 74.876 293.417 74.261 C 292.571 73.645 292.149 72.983 292.149 72.274 C 292.149 71.628 292.321 71.022 292.666 70.46 C 293.01 69.896 293.643 69.197 294.568 68.364 L 294.451 68.238 C 293.919 68.447 293.397 68.552 292.886 68.552 C 291.804 68.552 290.929 68.218 290.26 67.551 C 289.591 66.884 289.256 65.976 289.256 64.829 C 289.256 64.183 289.532 62.676 290.082 60.309 C 290.633 57.943 291.283 55.497 292.031 52.973 L 295.484 41.712 C 296.153 39.689 296.959 37.718 297.904 35.8 C 297.804 35.821 297.578 35.935 297.225 36.144 C 295.868 36.727 294.903 37.019 294.333 37.019 C 293.526 37.019 293.123 36.697 293.123 36.049 C 293.123 35.362 293.437 34.372 294.067 33.079 C 294.697 31.786 295.326 30.816 295.956 30.168 C 297.392 28.772 299.581 27.667 302.522 26.853 C 305.463 26.04 308.753 25.633 312.394 25.633 C 314.597 25.633 316.589 25.831 318.369 26.228 C 320.149 26.624 321.67 27.212 322.928 27.995 C 324.188 28.777 325.146 29.72 325.806 30.825 C 326.465 31.932 326.795 33.161 326.795 34.517 C 326.795 36.415 326.421 38.104 325.673 39.585 C 324.925 41.066 323.745 42.452 322.132 43.745 Z  M 304.669 49.786 C 304.59 50.118 304.512 50.431 304.433 50.723 C 303.502 54.038 302.648 56.727 301.872 58.791 C 301.094 60.857 300.273 62.608 299.407 64.047 C 298.916 64.923 298.208 65.851 297.283 66.831 C 299.663 67.602 301.36 68.103 302.374 68.333 C 303.387 68.563 304.395 68.677 305.398 68.677 C 306.56 68.677 307.587 68.494 308.482 68.129 C 309.378 67.765 310.219 67.175 311.006 66.362 C 312.168 65.153 313.111 63.713 313.839 62.044 C 314.567 60.377 314.932 58.76 314.932 57.196 C 314.932 55.487 314.371 54.036 313.251 52.849 C 312.701 52.264 312.086 51.816 311.408 51.503 C 310.73 51.191 309.792 50.929 308.592 50.721 C 307.493 50.493 306.725 50.273 306.293 50.065 C 305.861 49.857 305.398 49.461 304.908 48.878 C 304.828 49.15 304.749 49.452 304.669 49.786 Z  M 311.063 32.422 C 310.276 32.422 309.695 32.547 309.32 32.796 L 305.561 46.497 C 305.797 46.539 306.03 46.56 306.266 46.56 C 307.304 46.56 308.508 46.049 309.88 45.027 C 311.604 43.757 312.94 42.395 313.89 40.945 C 314.84 39.496 315.314 38.083 315.314 36.706 C 315.314 33.85 313.898 32.422 311.063 32.422 Z  M 254.725 56.947 L 238.966 56.947 C 238.986 58.886 239.355 60.595 240.074 62.076 C 240.791 63.557 241.745 64.672 242.935 65.424 C 244.126 66.174 245.439 66.55 246.876 66.55 C 247.839 66.55 248.72 66.43 249.516 66.19 C 250.314 65.951 251.085 65.575 251.833 65.064 C 252.58 64.553 253.269 64.006 253.9 63.421 C 254.529 62.838 255.345 62.044 256.349 61.045 C 256.761 60.669 257.351 60.481 258.118 60.481 C 258.945 60.481 259.614 60.721 260.126 61.201 C 260.637 61.681 260.893 62.359 260.893 63.234 C 260.893 64.006 260.608 64.907 260.037 65.94 C 259.466 66.972 258.606 67.962 257.455 68.911 C 256.304 69.861 254.859 70.648 253.116 71.273 C 251.376 71.899 249.373 72.211 247.112 72.211 C 241.937 72.211 237.914 70.648 235.041 67.519 C 232.169 64.391 230.733 60.147 230.733 54.788 C 230.733 52.265 231.087 49.924 231.795 47.765 C 232.503 45.607 233.537 43.757 234.894 42.213 C 236.251 40.669 237.923 39.486 239.911 38.663 C 241.897 37.839 244.102 37.426 246.521 37.426 C 249.669 37.426 252.369 38.131 254.622 39.538 C 256.874 40.946 258.561 42.766 259.683 44.997 C 260.804 47.228 261.365 49.501 261.365 51.816 C 261.365 53.964 260.784 55.356 259.624 55.991 C 258.463 56.629 256.831 56.947 254.725 56.947 Z  M 251.347 45.543 C 250.058 44.094 248.36 43.37 246.255 43.37 C 244.249 43.37 242.601 44.105 241.313 45.575 C 240.024 47.045 239.242 49.22 238.966 52.097 L 253.574 52.097 C 253.378 49.178 252.634 46.994 251.347 45.543 Z  M 218.205 56.947 L 202.447 56.947 C 202.466 58.886 202.836 60.595 203.554 62.076 C 204.272 63.557 205.225 64.672 206.416 65.424 C 207.606 66.174 208.92 66.55 210.356 66.55 C 211.319 66.55 212.201 66.43 212.997 66.19 C 213.795 65.951 214.566 65.575 215.313 65.064 C 216.061 64.553 216.75 64.006 217.38 63.421 C 218.01 62.838 218.825 62.044 219.829 61.045 C 220.242 60.669 220.833 60.481 221.599 60.481 C 222.425 60.481 223.094 60.721 223.607 61.201 C 224.118 61.681 224.374 62.359 224.374 63.234 C 224.374 64.006 224.089 64.907 223.517 65.94 C 222.947 66.972 222.087 67.962 220.936 68.911 C 219.785 69.861 218.339 70.648 216.597 71.273 C 214.856 71.899 212.854 72.211 210.593 72.211 C 205.417 72.211 201.394 70.648 198.522 67.519 C 195.65 64.391 194.214 60.147 194.214 54.788 C 194.214 52.265 194.567 49.924 195.275 47.765 C 195.984 45.607 197.018 43.757 198.375 42.213 C 199.732 40.669 201.403 39.486 203.391 38.663 C 205.378 37.839 207.583 37.426 210.001 37.426 C 213.149 37.426 215.85 38.131 218.103 39.538 C 220.355 40.946 222.042 42.766 223.164 44.997 C 224.285 47.228 224.846 49.501 224.846 51.816 C 224.846 53.964 224.265 55.356 223.105 55.991 C 221.943 56.629 220.311 56.947 218.205 56.947 Z  M 214.827 45.543 C 213.538 44.094 211.841 43.37 209.736 43.37 C 207.73 43.37 206.082 44.105 204.793 45.575 C 203.504 47.045 202.723 49.22 202.447 52.097 L 217.056 52.097 C 216.859 49.178 216.115 46.994 214.827 45.543 Z  M 192.104 31.326 C 191.79 31.326 191.248 31.264 190.481 31.139 C 189.714 31.013 189.065 30.951 188.533 30.951 C 187.077 30.951 186.143 31.405 185.73 32.311 C 185.316 33.219 185.11 34.517 185.11 36.207 L 185.11 38.24 L 187.087 38.24 C 190.157 38.24 191.691 39.22 191.691 41.18 C 191.691 42.578 191.283 43.464 190.467 43.839 C 189.649 44.215 188.523 44.402 187.087 44.402 L 185.11 44.402 L 185.11 67.019 C 185.11 68.709 184.732 69.996 183.973 70.882 C 183.217 71.769 182.238 72.211 181.037 72.211 C 179.896 72.211 178.947 71.769 178.19 70.882 C 177.432 69.996 177.053 68.709 177.053 67.019 L 177.053 44.402 L 174.841 44.402 C 173.64 44.402 172.715 44.115 172.066 43.542 C 171.417 42.968 171.092 42.223 171.092 41.305 C 171.092 39.262 172.44 38.24 175.135 38.24 L 177.053 38.24 L 177.053 35.675 C 177.053 33.005 177.372 30.883 178.012 29.309 C 178.652 27.734 179.734 26.587 181.259 25.868 C 182.783 25.148 184.873 24.788 187.53 24.788 C 192.231 24.788 194.583 26.009 194.583 28.449 C 194.583 29.241 194.337 29.919 193.845 30.482 C 193.353 31.045 192.772 31.326 192.104 31.326 Z  M 169.131 31.326 C 168.815 31.326 168.274 31.264 167.507 31.139 C 166.741 31.013 166.09 30.951 165.559 30.951 C 164.104 30.951 163.169 31.405 162.756 32.311 C 162.343 33.219 162.137 34.517 162.137 36.207 L 162.137 38.24 L 164.113 38.24 C 167.182 38.24 168.717 39.22 168.717 41.18 C 168.717 42.578 168.308 43.464 167.492 43.839 C 166.676 44.215 165.549 44.402 164.113 44.402 L 162.137 44.402 L 162.137 67.019 C 162.137 68.709 161.757 69.996 161 70.882 C 160.242 71.769 159.263 72.211 158.064 72.211 C 156.922 72.211 155.973 71.769 155.217 70.882 C 154.458 69.996 154.08 68.709 154.08 67.019 L 154.08 44.402 L 151.866 44.402 C 150.667 44.402 149.742 44.115 149.093 43.542 C 148.443 42.968 148.119 42.223 148.119 41.305 C 148.119 39.262 149.466 38.24 152.162 38.24 L 154.08 38.24 L 154.08 35.675 C 154.08 33.005 154.399 30.883 155.039 29.309 C 155.678 27.734 156.76 26.587 158.284 25.868 C 159.81 25.148 161.9 24.788 164.556 24.788 C 169.258 24.788 171.61 26.009 171.61 28.449 C 171.61 29.241 171.363 29.919 170.871 30.482 C 170.38 31.045 169.799 31.326 169.131 31.326 Z  M 141.494 67.426 C 140.078 68.969 138.386 70.152 136.417 70.976 C 134.451 71.8 132.237 72.211 129.778 72.211 C 127.339 72.211 125.144 71.795 123.197 70.96 C 121.249 70.126 119.562 68.932 118.136 67.379 C 116.709 65.826 115.628 63.99 114.89 61.872 C 114.152 59.757 113.783 57.416 113.783 54.85 C 113.783 52.265 114.156 49.898 114.904 47.749 C 115.652 45.601 116.724 43.766 118.122 42.244 C 119.518 40.722 121.209 39.548 123.197 38.724 C 125.184 37.901 127.378 37.489 129.778 37.489 C 132.217 37.489 134.431 37.906 136.417 38.74 C 138.405 39.574 140.107 40.764 141.523 42.306 C 142.94 43.85 144.017 45.685 144.755 47.813 C 145.492 49.938 145.862 52.285 145.862 54.85 C 145.862 57.395 145.487 59.741 144.74 61.888 C 143.992 64.036 142.911 65.882 141.494 67.426 Z  M 135.607 46.717 C 134.16 44.777 132.217 43.808 129.778 43.808 C 128.203 43.808 126.817 44.241 125.617 45.106 C 124.417 45.972 123.492 47.249 122.842 48.939 C 122.193 50.627 121.869 52.598 121.869 54.85 C 121.869 57.082 122.188 59.032 122.828 60.7 C 123.468 62.369 124.382 63.646 125.573 64.532 C 126.763 65.419 128.165 65.861 129.778 65.861 C 132.217 65.861 134.16 64.886 135.607 62.937 C 137.052 60.987 137.776 58.291 137.776 54.85 C 137.776 51.368 137.052 48.656 135.607 46.717 Z  M 83.521 63.077 C 85.251 64.245 87.277 64.829 89.6 64.829 C 92.117 64.829 94.247 64.168 95.988 62.843 C 97.73 61.519 99.043 59.574 99.928 57.008 C 100.302 55.8 100.764 54.814 101.316 54.052 C 101.866 53.291 102.751 52.91 103.971 52.91 C 105.013 52.91 105.909 53.297 106.657 54.068 C 107.404 54.84 107.778 55.8 107.778 56.947 C 107.778 58.406 107.439 59.986 106.761 61.686 C 106.081 63.385 105.013 65.053 103.559 66.69 C 102.102 68.327 100.242 69.657 97.98 70.679 C 95.717 71.7 93.082 72.211 90.072 72.211 C 87.789 72.211 85.713 71.981 83.845 71.523 C 81.976 71.064 80.278 70.351 78.754 69.381 C 77.23 68.41 75.828 67.133 74.548 65.549 C 73.408 64.11 72.434 62.499 71.627 60.716 C 70.821 58.932 70.215 57.029 69.812 55.006 C 69.408 52.984 69.207 50.836 69.207 48.563 C 69.207 44.872 69.713 41.566 70.727 38.647 C 71.74 35.727 73.191 33.23 75.08 31.154 C 76.968 29.079 79.182 27.5 81.719 26.415 C 84.258 25.331 86.963 24.788 89.835 24.788 C 93.337 24.788 96.456 25.529 99.19 27.01 C 101.924 28.491 104.02 30.321 105.477 32.499 C 106.931 34.679 107.661 36.738 107.661 38.677 C 107.661 39.741 107.306 40.679 106.598 41.493 C 105.889 42.306 105.034 42.713 104.03 42.713 C 102.908 42.713 102.067 42.431 101.508 41.869 C 100.947 41.305 100.321 40.335 99.633 38.96 C 98.492 36.687 97.15 34.986 95.604 33.86 C 94.061 32.734 92.157 32.171 89.894 32.171 C 86.294 32.171 83.426 33.621 81.292 36.52 C 79.157 39.418 78.09 43.537 78.09 48.875 C 78.09 52.441 78.562 55.408 79.507 57.776 C 80.451 60.142 81.789 61.909 83.521 63.077 Z " fill-rule="evenodd" fill="rgb(255,255,255)"/></g></svg>