<?xml version="1.0" encoding="UTF-8" standalone="no"?><!-- Generator: Gravit.io --><svg xmlns="http://www.w3.org/2000/svg" xmlns:xlink="http://www.w3.org/1999/xlink" style="isolation:isolate" viewBox="0 0 200.706 33.333" width="200.706pt" height="33.333pt"><defs><clipPath id="_clipPath_4FSYVjEEiaSvbKvWbDbiHIb3s02yDqDW"><rect width="200.706" height="33.333"/></clipPath></defs><g clip-path="url(#_clipPath_4FSYVjEEiaSvbKvWbDbiHIb3s02yDqDW)"><g><path d=" M 62.282 18.591 C 67.59 19.705 72.89 20.041 78.186 20.182 C 83.482 20.306 88.775 20.089 94.064 19.591 C 99.354 19.093 104.64 18.461 109.932 18.259 C 115.226 18.042 120.522 18.099 125.819 18.361 C 131.118 18.618 136.418 18.97 141.712 19.014 C 147.008 19.093 152.302 18.886 157.591 18.501 C 160.236 18.327 162.882 18.11 165.527 17.969 C 168.172 17.814 170.819 17.726 173.466 17.659 C 178.759 17.529 184.054 17.461 189.351 17.621 L 189.34 16.757 C 184.047 16.979 178.754 16.974 173.456 16.907 C 170.81 16.871 168.16 16.815 165.511 16.691 C 162.863 16.583 160.212 16.397 157.563 16.255 C 152.264 15.933 146.968 15.787 141.675 15.929 C 136.38 16.037 131.09 16.453 125.8 16.771 C 120.508 17.097 115.215 17.218 109.919 17.063 C 104.622 16.923 99.319 16.355 94.019 15.919 C 88.718 15.486 83.42 15.33 78.13 15.517 C 72.836 15.722 67.546 16.121 62.266 17.297 L 62.282 18.591 Z " fill="rgb(255,255,255)"/></g><g><path d=" M 189.558 17.105 C 189.558 18.714 190.942 20.019 192.648 20.019 C 194.356 20.019 195.74 18.714 195.74 17.105 C 195.74 15.495 194.356 14.189 192.648 14.189 C 190.942 14.189 189.558 15.495 189.558 17.105 Z " fill="rgb(255,255,255)"/></g><g><path d=" M 196.056 17.105 C 196.056 17.847 196.695 18.45 197.483 18.45 C 198.271 18.45 198.91 17.847 198.91 17.105 C 198.91 16.361 198.271 15.759 197.483 15.759 C 196.695 15.759 196.056 16.361 196.056 17.105 Z " fill="rgb(255,255,255)"/></g><g><path d=" M 199.227 17.105 C 199.227 17.49 199.558 17.802 199.967 17.802 C 200.375 17.802 200.706 17.49 200.706 17.105 C 200.706 16.719 200.375 16.407 199.967 16.407 C 199.558 16.407 199.227 16.719 199.227 17.105 Z " fill="rgb(255,255,255)"/></g><g><path d=" M 2.843 1.636 C 1.926 4.706 1.595 7.882 1.932 10.964 C 2.26 14.042 3.207 17.024 4.714 19.669 C 6.203 22.33 8.308 24.592 10.72 26.388 L 11.635 27.053 L 12.611 27.624 C 12.94 27.805 13.25 28.026 13.595 28.177 L 14.624 28.648 C 15.303 28.994 16.008 29.198 16.704 29.453 C 17.052 29.578 17.422 29.634 17.776 29.73 C 18.138 29.816 18.492 29.92 18.863 29.952 L 19.96 30.104 C 20.327 30.136 20.698 30.133 21.067 30.153 L 21.62 30.174 L 22.174 30.141 C 22.542 30.114 22.912 30.105 23.279 30.068 C 24.746 29.873 26.192 29.52 27.567 28.965 C 30.296 27.826 32.751 25.981 34.483 23.574 C 34.956 23 35.296 22.337 35.688 21.709 C 35.871 21.386 36.007 21.041 36.171 20.708 C 36.328 20.372 36.5 20.04 36.604 19.694 C 37.132 18.341 37.412 16.896 37.423 15.445 C 37.464 12.55 36.515 9.616 34.692 7.33 C 33.786 6.188 32.686 5.204 31.45 4.425 C 31.132 4.248 30.838 4.024 30.5 3.88 L 29.508 3.41 C 29.17 3.296 28.838 3.165 28.498 3.057 C 28.15 2.982 27.808 2.874 27.458 2.814 C 24.651 2.294 21.626 3.06 19.371 4.861 C 18.248 5.762 17.326 6.91 16.678 8.204 C 16.022 9.492 15.683 10.877 15.771 12.296 C 15.822 13.708 16.299 15.096 17.062 16.294 C 17.856 17.472 18.939 18.47 20.242 19.084 C 21.503 19.745 22.94 19.908 24.32 19.648 C 25.699 19.368 26.97 18.608 27.903 17.542 C 28.358 17.002 28.727 16.374 28.986 15.722 C 29.236 15.077 29.348 14.381 29.312 13.686 C 29.25 12.294 28.567 10.924 27.459 10.04 C 26.911 9.598 26.255 9.249 25.592 9.09 C 24.922 8.922 24.204 8.958 23.534 9.153 C 22.194 9.54 21.062 10.72 20.78 12.084 C 20.5 13.441 21.219 14.97 22.526 15.59 C 23.148 15.916 23.891 15.966 24.56 15.728 C 25.228 15.496 25.799 14.976 26.086 14.309 L 26.68 14.55 C 26.367 15.392 25.68 16.094 24.835 16.437 C 23.995 16.789 22.988 16.772 22.155 16.386 C 21.32 16.036 20.618 15.377 20.171 14.577 C 19.726 13.774 19.562 12.817 19.704 11.897 C 20.019 10.061 21.395 8.54 23.142 7.944 C 24.011 7.656 24.966 7.573 25.875 7.762 C 26.795 7.952 27.615 8.356 28.347 8.898 C 29.815 9.986 30.775 11.726 30.93 13.568 C 31.012 14.486 30.898 15.426 30.596 16.302 C 30.29 17.165 29.856 17.964 29.294 18.684 C 28.152 20.108 26.527 21.134 24.736 21.548 C 22.956 21.949 20.995 21.758 19.359 20.958 C 17.707 20.229 16.287 19.004 15.239 17.526 C 14.224 16.026 13.564 14.265 13.454 12.438 C 13.299 10.62 13.724 8.742 14.51 7.141 C 15.28 5.526 16.403 4.072 17.784 2.92 C 20.551 0.618 24.328 -0.431 27.914 0.164 C 28.362 0.23 28.799 0.354 29.24 0.453 C 29.674 0.581 30.098 0.738 30.527 0.885 L 31.736 1.437 C 32.146 1.612 32.51 1.87 32.898 2.086 C 34.411 3.014 35.766 4.201 36.887 5.582 C 39.139 8.346 40.351 11.909 40.339 15.477 C 40.318 15.924 40.331 16.372 40.279 16.816 L 40.106 18.145 L 39.803 19.449 C 39.703 19.886 39.528 20.3 39.392 20.724 C 39.262 21.157 39.07 21.549 38.884 21.945 C 38.695 22.34 38.53 22.748 38.315 23.13 C 37.862 23.881 37.451 24.661 36.899 25.346 C 34.85 28.206 31.95 30.413 28.718 31.772 C 27.091 32.436 25.375 32.865 23.634 33.098 C 23.198 33.144 22.758 33.162 22.318 33.193 L 21.66 33.232 L 21 33.213 C 20.562 33.193 20.12 33.193 19.683 33.156 L 18.374 32.982 C 17.935 32.941 17.511 32.825 17.083 32.724 C 16.656 32.614 16.22 32.542 15.806 32.397 C 14.979 32.105 14.124 31.854 13.364 31.45 L 12.192 30.893 C 11.799 30.714 11.444 30.46 11.07 30.246 L 9.96 29.574 L 8.92 28.8 C 8.579 28.533 8.215 28.296 7.896 28.002 L 6.942 27.126 C 6.288 26.558 5.759 25.87 5.184 25.229 C 4.888 24.914 4.643 24.558 4.394 24.209 L 3.644 23.158 C 3.187 22.43 2.759 21.682 2.352 20.929 C 0.839 17.846 0.018 14.45 0 11.066 C -0.018 7.688 0.739 4.329 2.25 1.393 L 2.843 1.636 Z " fill="rgb(255,255,255)"/></g><g><path d=" M 63.257 26.977 C 63.374 24.298 62.993 21.656 62.089 19.225 C 61.193 16.794 59.816 14.57 58.053 12.733 C 56.301 10.878 54.132 9.476 51.808 8.512 L 50.93 8.16 L 50.022 7.896 C 49.718 7.816 49.422 7.7 49.11 7.649 L 48.18 7.478 C 47.56 7.336 46.945 7.314 46.328 7.249 C 46.02 7.22 45.71 7.249 45.401 7.244 C 45.093 7.248 44.782 7.237 44.476 7.285 C 43.24 7.365 42.037 7.697 40.869 8.094 C 39.721 8.554 38.62 9.134 37.618 9.866 C 35.637 11.348 34.024 13.346 33.11 15.653 C 32.844 16.214 32.704 16.821 32.514 17.41 C 32.433 17.71 32.393 18.018 32.328 18.322 C 32.269 18.626 32.198 18.932 32.184 19.233 C 32.033 20.438 32.101 21.668 32.39 22.845 C 32.949 25.202 34.317 27.389 36.262 28.869 C 37.23 29.61 38.325 30.184 39.486 30.562 C 40.062 30.766 40.668 30.874 41.269 30.989 C 41.565 31.012 41.862 31.05 42.161 31.068 C 42.457 31.058 42.757 31.076 43.054 31.054 C 45.437 30.906 47.738 29.67 49.205 27.749 C 49.934 26.786 50.452 25.666 50.714 24.482 C 50.988 23.301 50.981 22.104 50.618 20.965 C 50.288 19.826 49.612 18.796 48.744 17.978 C 47.853 17.185 46.766 16.598 45.582 16.369 C 44.42 16.093 43.22 16.258 42.153 16.754 C 41.093 17.268 40.221 18.145 39.681 19.198 C 39.422 19.729 39.252 20.316 39.174 20.896 C 39.104 21.47 39.156 22.058 39.326 22.614 C 39.662 23.729 40.496 24.704 41.576 25.193 C 42.11 25.44 42.714 25.588 43.284 25.581 C 43.862 25.58 44.437 25.404 44.941 25.11 C 45.948 24.522 46.624 23.334 46.573 22.17 C 46.522 21.01 45.626 19.918 44.442 19.682 C 43.869 19.546 43.257 19.657 42.762 19.988 C 42.269 20.313 41.913 20.85 41.816 21.449 L 41.285 21.376 C 41.366 20.629 41.78 19.918 42.396 19.468 C 43.005 19.009 43.824 18.82 44.578 18.96 C 45.328 19.076 46.032 19.465 46.558 20.022 C 47.082 20.582 47.412 21.326 47.485 22.101 C 47.605 23.654 46.8 25.17 45.505 26.009 C 44.858 26.421 44.101 26.682 43.325 26.717 C 42.541 26.75 41.792 26.59 41.088 26.3 C 39.674 25.718 38.54 24.504 38.038 23.041 C 37.785 22.313 37.684 21.528 37.75 20.754 C 37.822 19.993 38.01 19.257 38.32 18.557 C 38.952 17.17 40.065 16.005 41.433 15.309 C 42.794 14.62 44.422 14.378 45.909 14.694 C 47.396 14.949 48.793 15.654 49.941 16.638 C 51.066 17.646 51.954 18.94 52.417 20.394 C 52.914 21.83 52.954 23.436 52.649 24.893 C 52.357 26.356 51.746 27.765 50.865 28.981 C 49.098 31.412 46.254 33.04 43.226 33.294 C 42.849 33.333 42.469 33.322 42.09 33.333 C 41.713 33.317 41.337 33.276 40.958 33.245 C 40.228 33.12 39.497 32.992 38.79 32.756 C 37.374 32.312 36.03 31.626 34.841 30.734 C 32.449 28.954 30.736 26.313 30.017 23.416 C 29.648 21.969 29.546 20.45 29.712 18.968 C 29.729 18.59 29.805 18.233 29.874 17.873 C 29.949 17.513 30 17.15 30.094 16.796 C 30.309 16.094 30.482 15.378 30.788 14.709 C 31.866 11.97 33.768 9.588 36.112 7.826 C 37.294 6.953 38.598 6.256 39.962 5.709 C 41.348 5.224 42.781 4.834 44.252 4.728 C 44.617 4.672 44.985 4.68 45.353 4.673 C 45.721 4.676 46.089 4.645 46.454 4.677 C 47.185 4.745 47.929 4.776 48.629 4.946 L 49.693 5.158 C 50.049 5.225 50.389 5.357 50.736 5.453 L 51.774 5.773 L 52.776 6.188 C 55.445 7.304 57.825 9.069 59.71 11.228 C 61.568 13.418 62.929 16.005 63.634 18.746 C 64.34 21.482 64.413 24.362 63.788 27.052 L 63.257 26.977 Z " fill="rgb(255,255,255)"/></g></g></svg>