<?xml version="1.0" encoding="UTF-8" standalone="no"?><!-- Generator: Gravit.io --><svg xmlns="http://www.w3.org/2000/svg" xmlns:xlink="http://www.w3.org/1999/xlink" style="isolation:isolate" viewBox="0 0 413.12 25.157" width="413.12pt" height="25.157pt"><defs><clipPath id="_clipPath_GRAipQeYRvJwLjl0wJ8u7epnTlU0XeXp"><rect width="413.12" height="25.157"/></clipPath></defs><g clip-path="url(#_clipPath_GRAipQeYRvJwLjl0wJ8u7epnTlU0XeXp)"><path d=" M 143.437 16.504 C 131.484 16.37 119.533 15.998 107.58 15.879 C 104.592 15.878 101.603 15.858 98.615 15.899 C 97.12 15.922 95.627 15.903 94.132 15.963 C 92.636 16.039 91.137 16.452 89.64 16.803 C 88.143 17.171 86.648 17.326 85.153 17.274 C 83.66 17.264 82.165 17.263 80.672 17.203 C 77.684 17.126 74.696 16.915 71.711 16.71 C 65.737 16.222 59.761 16.067 53.785 15.938 L 35.857 15.5 C 23.905 15.25 11.953 15.046 0 14.932 L 0.012 13.53 C 11.965 13.62 23.919 13.619 35.873 13.574 L 53.807 13.442 C 59.784 13.415 65.761 13.363 71.743 12.976 C 74.732 12.822 77.723 12.663 80.711 12.636 C 82.205 12.602 83.699 12.626 85.193 12.642 C 86.688 12.615 88.181 12.795 89.672 13.19 C 91.163 13.564 92.653 14.004 94.147 14.106 C 95.64 14.191 97.135 14.198 98.629 14.247 C 101.616 14.338 104.604 14.368 107.592 14.42 C 119.547 14.504 131.503 14.336 143.456 14.406 L 143.437 16.504 Z " fill="rgb(255,255,255)"/><path d=" M 269.663 13.517 C 281.617 13.447 293.573 13.617 305.525 13.53 C 308.515 13.481 311.503 13.449 314.491 13.357 C 315.984 13.307 317.479 13.301 318.972 13.217 C 320.467 13.115 321.956 12.675 323.448 12.301 C 324.939 11.906 326.431 11.726 327.925 11.753 C 329.419 11.737 330.913 11.711 332.409 11.747 C 335.397 11.774 338.387 11.934 341.377 12.087 C 347.357 12.474 353.335 12.526 359.312 12.553 L 377.245 12.683 C 389.2 12.731 401.153 12.731 413.108 12.641 L 413.12 14.043 C 401.167 14.155 389.213 14.361 377.261 14.611 L 359.333 15.049 C 353.357 15.178 347.381 15.331 341.409 15.821 C 338.421 16.026 335.435 16.237 332.448 16.314 C 330.953 16.374 329.46 16.375 327.965 16.385 C 326.471 16.437 324.975 16.282 323.477 15.914 C 321.98 15.565 320.483 15.15 318.988 15.074 C 317.493 15.015 315.999 15.034 314.505 15.01 C 311.516 14.969 308.527 14.989 305.539 14.989 C 293.585 15.107 281.635 15.481 269.681 15.615 L 269.663 13.517 Z " fill="rgb(255,255,255)"/><path d=" M 195.269 14.578 C 198.669 18.686 203.683 21.387 208.993 22.367 C 211.657 22.853 214.412 22.905 217.121 22.495 C 219.821 22.086 222.48 21.111 224.852 19.791 C 227.237 18.483 229.4 16.922 231.541 15.454 C 233.68 13.995 235.864 12.655 238.151 11.505 C 240.429 10.346 242.783 9.355 245.2 8.603 C 247.623 7.873 250.105 7.359 252.608 7.202 C 255.1 7.005 257.605 7.139 259.899 7.834 C 261.037 8.183 262.136 8.675 263.087 9.319 C 264.047 9.963 264.895 10.782 265.571 11.707 C 266.94 13.549 267.517 15.891 266.844 18.009 C 266.2 20.135 264.472 21.985 262.365 22.667 C 261.307 23.009 260.159 23.065 259.155 22.751 C 258.175 22.446 257.305 21.726 256.749 20.787 C 256.193 19.854 255.948 18.723 256.173 17.674 C 256.391 16.617 257.04 15.613 257.928 14.911 C 258.819 14.214 259.947 13.813 261.079 13.919 C 262.203 14.001 263.305 14.599 263.772 15.57 C 264.004 16.062 264.092 16.642 264.003 17.189 C 263.917 17.73 263.621 18.241 263.187 18.534 C 262.32 19.154 260.713 18.89 260.277 17.79 L 259.865 17.926 C 260.073 18.653 260.716 19.186 261.409 19.398 C 262.107 19.619 262.905 19.591 263.596 19.211 C 264.288 18.819 264.741 18.125 264.921 17.386 C 265.101 16.646 265.045 15.865 264.773 15.146 C 264.496 14.418 263.96 13.801 263.333 13.379 C 262.703 12.946 261.979 12.694 261.241 12.582 C 259.759 12.346 258.203 12.783 256.984 13.63 C 255.768 14.49 254.827 15.766 254.433 17.265 C 254.032 18.778 254.305 20.405 255.021 21.753 C 255.728 23.113 256.964 24.238 258.476 24.774 C 259.971 25.295 261.568 25.251 263.016 24.845 C 264.479 24.437 265.805 23.617 266.871 22.567 C 267.399 22.035 267.869 21.447 268.267 20.81 C 268.657 20.169 268.977 19.485 269.22 18.766 C 269.693 17.331 269.803 15.731 269.503 14.247 C 269.367 13.501 269.132 12.779 268.829 12.097 C 268.531 11.411 268.164 10.761 267.736 10.159 C 266.889 8.946 265.815 7.918 264.607 7.087 C 263.388 6.251 262.067 5.658 260.703 5.229 C 257.967 4.386 255.133 4.223 252.408 4.435 C 246.927 4.845 241.676 6.642 236.933 9.162 C 234.556 10.421 232.289 11.879 230.125 13.423 C 227.964 14.955 225.915 16.546 223.737 17.838 C 221.571 19.151 219.245 20.058 216.777 20.571 C 214.313 21.069 211.752 21.135 209.235 20.815 C 204.196 20.19 199.289 17.954 195.589 14.287 L 195.269 14.578 Z " fill="rgb(255,255,255)"/><path d=" M 217.032 14.578 C 213.634 18.686 208.619 21.387 203.308 22.367 C 200.644 22.853 197.89 22.905 195.182 22.495 C 192.482 22.086 189.823 21.111 187.451 19.791 C 185.066 18.483 182.903 16.922 180.76 15.454 C 178.623 13.995 176.439 12.655 174.151 11.505 C 171.874 10.346 169.52 9.355 167.102 8.603 C 164.679 7.873 162.198 7.359 159.695 7.202 C 157.202 7.005 154.698 7.139 152.403 7.834 C 151.266 8.183 150.166 8.675 149.215 9.319 C 148.255 9.963 147.407 10.782 146.731 11.707 C 145.362 13.549 144.784 15.891 145.459 18.009 C 146.103 20.135 147.831 21.985 149.936 22.667 C 150.995 23.009 152.143 23.065 153.147 22.751 C 154.127 22.446 154.996 21.726 155.554 20.787 C 156.11 19.854 156.355 18.723 156.13 17.674 C 155.911 16.617 155.263 15.613 154.374 14.911 C 153.483 14.214 152.355 13.813 151.223 13.919 C 150.1 14.001 148.998 14.599 148.531 15.57 C 148.299 16.062 148.21 16.642 148.299 17.189 C 148.384 17.73 148.68 18.241 149.115 18.534 C 149.982 19.154 151.588 18.89 152.026 17.79 L 152.436 17.926 C 152.228 18.653 151.587 19.186 150.892 19.398 C 150.195 19.619 149.396 19.591 148.707 19.211 C 148.014 18.819 147.56 18.125 147.382 17.386 C 147.202 16.646 147.258 15.865 147.528 15.146 C 147.806 14.418 148.343 13.801 148.968 13.379 C 149.599 12.946 150.324 12.694 151.06 12.582 C 152.544 12.346 154.099 12.783 155.318 13.63 C 156.534 14.49 157.475 15.766 157.87 17.265 C 158.27 18.778 157.998 20.405 157.28 21.753 C 156.574 23.113 155.338 24.238 153.827 24.774 C 152.331 25.295 150.734 25.251 149.287 24.845 C 147.824 24.437 146.498 23.617 145.431 22.567 C 144.903 22.035 144.434 21.447 144.035 20.81 C 143.646 20.169 143.324 19.485 143.083 18.766 C 142.608 17.331 142.5 15.731 142.799 14.247 C 142.936 13.501 143.17 12.779 143.472 12.097 C 143.771 11.411 144.138 10.761 144.566 10.159 C 145.412 8.946 146.488 7.918 147.695 7.087 C 148.914 6.251 150.235 5.658 151.6 5.229 C 154.335 4.386 157.168 4.223 159.894 4.435 C 165.376 4.845 170.626 6.642 175.37 9.162 C 177.747 10.421 180.012 11.879 182.178 13.423 C 184.338 14.955 186.388 16.546 188.564 17.838 C 190.732 19.151 193.058 20.058 195.524 20.571 C 197.988 21.069 200.55 21.135 203.067 20.815 C 208.107 20.19 213.012 17.954 216.712 14.287 L 217.032 14.578 Z " fill="rgb(255,255,255)"/><path d=" M 212.345 9.133 C 212.257 7.319 211.631 5.544 210.523 4.215 C 209.43 2.888 207.886 2.019 206.282 2.021 C 204.674 1.969 203.086 2.841 202.023 4.203 C 200.929 5.547 200.301 7.316 200.218 9.133 C 200.153 10.945 200.603 12.824 201.666 14.335 C 202.721 15.829 204.422 16.911 206.282 16.945 C 207.203 16.94 208.114 16.684 208.918 16.231 C 209.715 15.765 210.385 15.1 210.914 14.348 C 211.962 12.821 212.418 10.948 212.345 9.133 Z  M 213.666 9.133 C 213.575 11.205 212.881 13.256 211.578 14.848 C 210.303 16.432 208.361 17.575 206.282 17.567 C 204.199 17.623 202.213 16.48 200.969 14.861 C 199.679 13.253 198.981 11.208 198.897 9.133 C 198.833 7.064 199.353 4.911 200.611 3.136 C 201.849 1.384 203.946 0.029 206.282 0 C 207.43 0.004 208.574 0.325 209.555 0.88 C 210.537 1.445 211.341 2.241 211.969 3.124 C 213.213 4.912 213.737 7.063 213.666 9.133 Z " fill="rgb(255,255,255)"/></g></svg>