<?xml version="1.0" encoding="UTF-8" standalone="no"?><!-- Generator: Gravit.io --><svg xmlns="http://www.w3.org/2000/svg" xmlns:xlink="http://www.w3.org/1999/xlink" style="isolation:isolate" viewBox="0 0 190.1 321.9" width="190.1pt" height="321.9pt"><defs><clipPath id="_clipPath_ZRMGYlhR12cSzfHZaeTXrSDRoYntIL9m"><rect width="190.1" height="321.9"/></clipPath></defs><g clip-path="url(#_clipPath_ZRMGYlhR12cSzfHZaeTXrSDRoYntIL9m)"><g><path d=" M 167.266 16.258 C 167.309 17.333 167.28 18.408 167.181 19.482 C 166.891 22.459 166.156 25.387 165.003 28.151 C 163.766 31.114 162.203 33.921 160.336 36.538 C 158.364 39.303 156.157 41.905 153.732 44.302 C 150.062 47.958 146.032 51.238 141.704 54.095 C 137.999 56.584 134.082 58.748 130.002 60.551 L 128.934 60.261 C 130.574 59.299 132.215 58.352 133.862 57.426 C 135.149 56.69 136.443 55.948 137.723 55.205 C 138.19 54.937 138.649 54.647 139.109 54.371 C 139.498 54.138 139.866 53.883 140.212 53.607 C 141.874 52.2 143.479 50.722 145.021 49.181 C 147.227 46.975 149.306 44.655 151.257 42.237 C 153.209 39.819 155.054 37.323 156.787 34.756 C 158.519 32.203 160.174 29.601 161.737 26.949 C 163.285 24.312 164.777 21.646 166.213 18.952 C 166.418 18.549 166.601 18.125 166.75 17.693 C 166.92 17.213 167.103 16.732 167.266 16.258 Z  M 61.674 157.531 C 60.344 157.474 59.015 157.432 57.686 157.403 C 53.592 157.312 49.505 157.255 45.41 157.248 C 40.998 157.248 36.593 157.184 32.195 157.071 C 26.085 156.887 19.969 156.711 13.859 156.555 C 14.51 156.159 15.146 155.749 15.776 155.332 C 19.785 152.638 23.525 149.548 26.927 146.104 C 29.119 143.898 31.212 141.593 33.192 139.203 C 35.193 136.791 37.123 134.309 38.969 131.785 C 40.828 129.232 42.639 126.644 44.406 124.028 C 46.174 121.412 47.921 118.788 49.653 116.151 C 51.378 113.535 53.111 110.925 54.864 108.337 C 56.583 105.785 58.35 103.267 60.161 100.778 C 61.928 98.346 63.774 95.977 65.697 93.658 C 67.557 91.416 69.523 89.253 71.587 87.174 C 73.617 85.13 75.774 83.214 78.05 81.432 C 80.292 79.671 82.654 78.087 85.136 76.68 C 90.326 73.767 95.997 71.773 101.873 70.804 C 109.312 69.56 116.941 69.991 124.196 72.07 C 127.781 73.081 131.239 74.531 134.47 76.376 C 137.695 78.2 140.651 80.449 143.274 83.058 L 143.338 83.122 C 145.572 85.385 147.481 87.93 149.023 90.702 C 150.557 93.495 151.759 96.465 152.58 99.548 C 153.414 102.659 153.909 105.855 154.036 109.08 C 154.178 112.29 153.973 115.522 153.435 118.689 C 153.223 119.863 152.954 121.023 152.643 122.168 C 148.393 120.379 144.016 118.916 139.54 117.791 C 136.655 117.056 133.721 116.483 130.765 116.059 C 128.368 115.712 125.971 115.493 123.56 115.401 C 122.69 113.98 121.728 112.622 120.675 111.328 C 119.904 110.388 119.091 109.49 118.228 108.627 C 115.52 105.919 112.402 103.663 108.979 101.952 C 105.529 100.241 101.845 99.06 98.047 98.445 C 92.115 97.462 86.027 97.978 80.334 99.951 C 74.805 101.874 69.784 105.028 65.662 109.179 C 62.042 112.799 59.157 117.07 57.141 121.772 C 54.384 128.193 53.556 135.271 54.758 142.144 C 55.338 145.496 56.413 148.734 57.94 151.761 C 58.987 153.811 60.231 155.749 61.674 157.531 Z  M 109.092 137.873 L 111.942 131.262 C 112.211 130.64 112.253 129.947 112.083 129.296 C 111.914 128.645 111.518 128.066 110.98 127.67 C 112.557 127.04 114.198 126.588 115.874 126.326 C 116.644 126.206 117.429 126.156 118.214 126.178 C 118.836 126.192 119.459 126.291 120.053 126.461 C 120.088 126.666 120.095 126.871 120.067 127.069 C 120.01 127.564 119.904 128.051 119.756 128.525 C 119.558 129.148 119.317 129.756 119.048 130.35 C 118.412 131.707 117.655 133.001 116.8 134.225 C 116.072 135.306 115.258 136.318 114.346 137.244 C 114.092 137.498 113.83 137.732 113.547 137.944 C 113.533 137.958 113.519 137.972 113.498 137.979 C 113.088 138.107 112.656 138.198 112.218 138.241 C 111.68 138.297 111.136 138.305 110.584 138.248 C 110.118 138.206 109.651 138.092 109.213 137.923 C 109.17 137.909 109.128 137.894 109.092 137.873 Z  M 148.825 132.365 C 148.775 132.443 148.719 132.527 148.662 132.598 C 148.351 133.065 148.026 133.503 147.679 133.935 C 146.831 135.009 145.94 136.042 145.013 137.039 C 144.045 138.078 143.062 139.104 142.065 140.101 C 141.301 140.864 140.537 141.614 139.76 142.349 C 139.335 142.759 138.897 143.155 138.459 143.537 C 135.609 145.977 132.476 148.048 129.111 149.703 C 125.823 151.337 122.329 152.496 118.716 153.14 C 115.23 153.769 111.652 153.783 108.159 153.203 C 104.574 152.574 101.152 151.245 98.076 149.3 C 97.404 148.883 96.775 148.395 96.209 147.829 C 95.474 147.122 94.943 146.238 94.667 145.27 C 94.448 144.357 94.455 143.403 94.689 142.491 C 95.014 141.26 95.544 140.079 96.244 139.012 C 97.128 137.661 98.146 136.417 99.292 135.285 C 99.575 135.002 99.865 134.727 100.162 134.458 C 100.07 134.734 99.992 135.024 99.928 135.313 C 99.688 136.417 99.695 137.569 99.964 138.672 C 100.261 139.888 100.89 140.984 101.774 141.868 L 101.774 141.868 C 103.294 143.403 105.126 144.584 107.155 145.34 C 109.022 146.019 111.023 146.281 113.01 146.118 C 114.926 145.941 116.793 145.418 118.511 144.562 C 120.236 143.714 121.806 142.583 123.164 141.211 C 125.179 139.21 126.685 136.756 127.583 134.062 C 127.703 133.701 127.753 133.312 127.725 132.931 L 127.286 126.043 C 127.951 126.057 128.602 126.114 129.252 126.213 C 130.567 126.397 131.882 126.637 133.191 126.941 C 134.661 127.281 136.132 127.663 137.582 128.094 C 140.389 128.893 143.154 129.862 145.848 130.972 C 146.838 131.382 147.807 131.827 148.754 132.322 C 148.782 132.337 148.804 132.344 148.825 132.365 Z  M 133.608 160.762 C 139.788 157.92 145.417 154.002 150.225 149.194 C 153.485 145.934 156.341 142.286 158.724 138.347 C 160.16 139.316 161.56 140.348 162.91 141.43 C 165.046 143.155 167.089 144.987 169.02 146.931 C 171.431 149.357 173.722 151.902 175.879 154.554 C 177.618 156.689 179.308 158.86 180.942 161.073 C 179.358 163.195 177.724 165.295 176.041 167.345 C 173.934 169.919 171.714 172.394 169.366 174.756 C 167.429 176.693 165.385 178.539 163.25 180.25 C 161.899 181.346 160.506 182.371 159.064 183.347 C 156.681 179.395 153.824 175.746 150.557 172.493 C 145.664 167.586 139.922 163.612 133.608 160.762 Z  M 112.31 193.883 C 112.26 193.056 111.9 192.285 111.284 191.726 C 111.256 191.698 111.228 191.67 111.193 191.649 L 111.178 191.635 C 111.115 191.585 111.051 191.536 110.987 191.486 C 110.613 191.224 110.273 190.927 109.955 190.609 C 109.531 190.185 109.149 189.704 108.838 189.195 C 108.583 188.785 108.399 188.346 108.286 187.88 C 108.23 187.654 108.223 187.406 108.258 187.173 C 108.293 187.052 108.357 186.946 108.442 186.862 C 108.576 186.727 108.746 186.614 108.916 186.529 C 109.276 186.352 109.651 186.218 110.047 186.133 C 111.178 185.865 112.352 185.907 113.462 186.268 C 114.587 186.628 115.612 187.258 116.439 188.099 C 117.585 189.245 118.356 190.694 118.667 192.278 C 118.836 193.169 118.921 194.074 118.907 194.979 C 117.988 194.908 117.062 194.802 116.149 194.668 C 114.855 194.477 113.568 194.223 112.31 193.883 Z  M 99.964 186.501 C 99.836 186.374 99.702 186.253 99.575 186.126 C 98.472 185.037 97.489 183.842 96.626 182.555 C 95.912 181.516 95.375 180.37 95.028 179.161 C 94.774 178.27 94.745 177.337 94.95 176.439 C 95.063 176.015 95.233 175.604 95.452 175.216 C 95.742 174.742 96.089 174.296 96.485 173.9 C 97.072 173.328 97.722 172.818 98.415 172.38 C 101.753 170.259 105.507 168.852 109.425 168.272 C 113.208 167.741 117.054 167.911 120.774 168.788 C 124.656 169.7 128.382 171.192 131.819 173.214 C 135.39 175.286 138.671 177.818 141.591 180.752 C 144.151 183.298 146.414 186.126 148.323 189.195 C 145.091 190.616 141.761 191.811 138.367 192.773 C 135.05 193.728 131.663 194.399 128.241 194.781 C 128.255 193.636 128.135 192.497 127.894 191.38 C 127.159 188.156 125.519 185.214 123.178 182.873 C 121.82 181.516 120.251 180.384 118.525 179.55 C 116.814 178.702 114.968 178.185 113.059 178.016 C 111.108 177.846 109.135 178.093 107.289 178.751 C 105.316 179.465 103.52 180.625 102.043 182.117 C 101.647 182.513 101.279 182.923 100.925 183.361 C 100.43 183.941 100.105 184.648 99.985 185.405 C 99.928 185.815 99.921 186.162 99.964 186.501 Z  M 95.056 160.918 C 93.748 161.533 92.49 162.24 91.287 163.032 C 90.071 163.838 88.933 164.764 87.893 165.79 C 86.727 166.942 85.73 168.251 84.938 169.693 C 84.124 171.171 83.566 172.776 83.29 174.452 C 83.007 176.234 83.021 178.044 83.325 179.819 C 83.672 181.806 84.28 183.729 85.129 185.553 C 86.847 189.336 89.209 192.787 92.129 195.736 C 93.925 197.532 95.933 199.116 98.097 200.459 C 100.232 201.76 102.488 202.842 104.836 203.677 C 107.19 204.518 109.616 205.161 112.083 205.579 C 112.868 205.713 113.646 205.826 114.438 205.925 C 113.858 206.632 113.25 207.311 112.593 207.955 C 110.139 210.394 107.296 212.416 104.178 213.937 C 102.714 214.665 101.18 215.252 99.603 215.712 C 98.196 216.129 96.732 216.39 95.268 216.496 C 93.048 216.638 90.828 216.553 88.629 216.221 C 86.592 215.924 84.598 215.386 82.675 214.651 C 79.026 213.237 75.717 211.073 72.952 208.308 C 70.35 205.692 68.257 202.623 66.779 199.25 C 65.294 195.898 64.446 192.292 64.283 188.636 C 64.113 184.945 64.693 181.268 65.98 177.818 C 67.394 174.112 69.579 170.754 72.394 167.968 C 73.122 167.239 73.886 166.546 74.678 165.896 C 75.194 165.705 75.667 165.401 76.056 165.012 C 76.778 164.277 77.181 163.28 77.181 162.247 C 77.258 161.123 76.848 160.02 76.056 159.228 C 75.66 158.832 75.194 158.535 74.678 158.344 C 73.879 157.686 73.115 156.993 72.394 156.272 C 69.572 153.479 67.387 150.12 65.98 146.422 C 64.693 142.971 64.113 139.294 64.283 135.603 C 64.446 131.948 65.294 128.341 66.779 124.99 C 68.257 121.617 70.35 118.548 72.952 115.932 C 75.717 113.167 79.026 111.003 82.675 109.589 C 84.591 108.846 86.592 108.316 88.629 108.019 C 90.828 107.687 93.055 107.595 95.268 107.743 C 96.732 107.849 98.189 108.104 99.603 108.528 C 101.173 108.981 102.714 109.575 104.178 110.303 C 107.176 111.76 109.927 113.69 112.317 116.024 C 111.836 116.094 111.348 116.186 110.867 116.271 C 108.506 116.724 106.186 117.374 103.945 118.216 C 101.696 119.05 99.539 120.118 97.503 121.391 C 95.438 122.692 93.515 124.219 91.782 125.951 C 88.869 128.907 86.5 132.351 84.796 136.134 C 83.941 137.951 83.333 139.874 82.986 141.861 C 82.682 143.636 82.668 145.46 82.951 147.242 C 83.226 148.904 83.785 150.509 84.591 151.994 C 85.39 153.43 86.387 154.738 87.554 155.89 C 88.615 156.937 89.774 157.884 91.026 158.698 C 92.299 159.532 93.635 160.274 95.035 160.911 C 95.035 160.911 95.042 160.918 95.056 160.918 Z  M 13.52 164.715 C 18.413 164.8 23.299 164.892 28.192 164.991 C 28.192 164.991 28.192 164.991 28.199 164.998 L 29.465 165.019 C 33.312 165.118 37.158 165.245 41.005 165.415 C 46.019 165.648 51.053 165.804 56.074 165.875 C 58.181 165.903 60.295 165.896 62.402 165.839 C 60.649 167.862 59.149 170.096 57.94 172.479 C 56.413 175.505 55.338 178.744 54.751 182.089 C 53.556 188.969 54.384 196.047 57.141 202.453 C 59.157 207.156 62.049 211.434 65.669 215.054 C 69.791 219.205 74.805 222.365 80.334 224.289 C 86.02 226.254 92.108 226.771 98.047 225.795 C 101.845 225.18 105.529 223.999 108.979 222.288 C 112.402 220.576 115.52 218.321 118.221 215.62 C 119.084 214.757 119.904 213.852 120.675 212.911 C 121.665 211.695 122.57 210.422 123.39 209.093 C 123.97 208.16 124.514 207.205 125.009 206.229 C 127.3 206.102 129.577 205.862 131.847 205.515 C 134.711 205.084 137.561 204.497 140.368 203.768 C 144.667 202.665 148.881 201.237 152.975 199.519 C 153.301 200.664 153.569 201.824 153.767 202.998 C 154.312 206.173 154.517 209.39 154.383 212.607 C 154.241 215.832 153.753 219.035 152.919 222.146 C 152.092 225.222 150.904 228.192 149.355 230.985 C 147.828 233.757 145.911 236.31 143.677 238.558 L 143.613 238.622 C 140.99 241.231 138.027 243.487 134.817 245.311 C 131.571 247.157 128.121 248.599 124.543 249.617 C 117.288 251.696 109.658 252.128 102.219 250.883 C 96.336 249.907 90.672 247.92 85.475 245 C 83 243.6 80.624 242.016 78.383 240.255 C 76.12 238.473 73.963 236.557 71.927 234.506 C 69.862 232.442 67.896 230.278 66.037 228.022 C 64.12 225.71 62.275 223.341 60.507 220.909 C 58.69 218.427 56.915 215.902 55.197 213.35 C 53.45 210.755 51.711 208.153 50 205.536 C 48.26 202.906 46.513 200.268 44.746 197.652 C 42.978 195.036 41.168 192.462 39.308 189.909 C 37.463 187.371 35.539 184.896 33.531 182.478 C 31.551 180.087 29.458 177.782 27.266 175.576 C 25.385 173.695 23.419 171.913 21.369 170.23 C 19.311 168.54 17.147 166.985 14.906 165.564 C 14.446 165.274 13.987 164.998 13.52 164.715 Z  M 167.62 304.757 C 167.266 304.065 166.898 303.372 166.524 302.686 C 165.088 300.034 163.603 297.404 162.062 294.816 C 160.471 292.15 158.795 289.526 157.048 286.96 C 155.281 284.357 153.414 281.826 151.434 279.379 C 149.454 276.919 147.347 274.571 145.12 272.33 C 143.203 270.399 141.167 268.575 139.038 266.885 C 136.91 265.181 134.676 263.625 132.328 262.225 C 131.868 261.949 131.402 261.666 130.935 261.398 C 134.796 263.151 138.522 265.223 142.044 267.585 C 146.364 270.449 150.395 273.73 154.079 277.385 C 156.49 279.782 158.703 282.378 160.676 285.156 C 162.543 287.759 164.112 290.573 165.343 293.529 C 166.495 296.293 167.231 299.221 167.521 302.212 C 167.598 303.053 167.634 303.909 167.62 304.757 Z  M 266.615 -109.084 C 266.6 -109.084 266.586 -109.07 266.565 -109.063 C 266.636 -109.063 266.692 -109.063 266.763 -109.063 M 266.615 -109.084 C 266.678 -109.091 266.742 -109.084 266.806 -109.091 C 266.791 -109.077 266.77 -109.07 266.763 -109.063 M 0 160.769 C 3.514 159.362 6.887 157.601 10.055 155.537 C 14.022 152.928 17.699 149.915 21.029 146.542 C 23.391 144.166 25.618 141.67 27.712 139.054 C 29.826 136.417 31.841 133.708 33.75 130.922 C 35.666 128.115 37.533 125.273 39.329 122.388 C 41.139 119.503 42.928 116.596 44.689 113.69 C 46.443 110.777 48.232 107.885 50.028 105 C 51.803 102.164 53.634 99.371 55.529 96.614 C 57.368 93.927 59.312 91.303 61.356 88.75 C 63.343 86.283 65.457 83.914 67.698 81.658 C 68.929 80.428 70.202 79.24 71.517 78.109 C 77.555 72.89 84.542 68.902 92.108 66.371 C 99.822 63.775 108.003 62.849 116.114 63.634 C 117.542 63.068 118.942 62.432 120.307 61.718 C 123.871 59.837 127.272 57.666 130.482 55.234 C 133.707 52.801 136.747 50.142 139.597 47.279 C 142.348 44.528 144.929 41.608 147.326 38.532 C 151.554 33.073 155.387 27.317 158.795 21.321 C 162.26 15.197 165.449 8.925 168.348 2.533 C 170.639 6.012 172.053 10 172.477 14.144 C 172.668 16.06 172.661 17.99 172.463 19.9 C 172.258 21.886 171.876 23.852 171.318 25.768 C 170.745 27.77 170.017 29.728 169.14 31.623 C 168.221 33.603 167.181 35.519 166.022 37.358 C 163.582 41.212 160.718 44.783 157.48 47.993 C 154.1 51.373 150.366 54.385 146.35 56.959 C 139.767 61.237 132.342 64.051 124.585 65.232 C 133.162 67.247 141.018 71.61 147.276 77.826 C 150.571 81.121 153.336 84.904 155.464 89.055 C 157.678 93.375 159.198 98.021 159.969 102.822 C 160.676 107.107 160.782 111.47 160.287 115.783 C 159.693 120.86 158.3 125.803 156.136 130.427 C 159.58 132.23 162.847 134.352 165.894 136.749 C 168.214 138.573 170.42 140.539 172.499 142.632 C 174.875 145.022 177.123 147.525 179.244 150.142 C 181.387 152.807 183.452 155.537 185.432 158.337 C 186.089 159.249 186.733 160.161 187.376 161.088 C 186.733 162 186.089 162.912 185.439 163.831 C 183.515 166.532 181.5 169.184 179.407 171.758 C 177.335 174.296 175.15 176.736 172.845 179.055 C 170.759 181.141 168.553 183.107 166.241 184.938 C 163.193 187.335 159.919 189.45 156.476 191.253 C 158.632 195.884 160.039 200.827 160.626 205.897 C 161.128 210.217 161.022 214.58 160.315 218.865 C 159.537 223.659 158.017 228.305 155.811 232.633 C 153.676 236.776 150.911 240.559 147.616 243.854 C 141.365 250.077 133.502 254.433 124.917 256.455 C 132.682 257.629 140.099 260.45 146.689 264.721 C 150.713 267.302 154.439 270.307 157.819 273.687 C 161.051 276.905 163.921 280.468 166.361 284.322 C 167.521 286.161 168.567 288.084 169.472 290.064 C 170.349 291.959 171.077 293.918 171.657 295.926 C 172.209 297.835 172.591 299.801 172.803 301.781 C 173.008 303.697 173.008 305.62 172.817 307.536 C 172.386 311.687 170.978 315.668 168.687 319.161 C 165.788 312.755 162.599 306.483 159.127 300.366 C 155.726 294.363 151.894 288.607 147.665 283.148 C 145.275 280.079 142.694 277.159 139.936 274.401 C 137.094 271.545 134.046 268.893 130.829 266.454 C 127.612 264.014 124.21 261.843 120.647 259.962 C 119.275 259.255 117.875 258.619 116.446 258.053 C 108.343 258.845 100.169 257.912 92.447 255.324 C 84.888 252.785 77.888 248.797 71.856 243.586 C 70.534 242.447 69.261 241.259 68.031 240.029 C 65.796 237.78 63.675 235.404 61.695 232.93 C 59.652 230.377 57.714 227.761 55.861 225.074 C 53.973 222.309 52.142 219.516 50.367 216.68 C 48.564 213.802 46.789 210.91 45.029 208.004 C 43.268 205.084 41.479 202.177 39.669 199.293 C 37.873 196.408 36.006 193.565 34.09 190.758 C 32.173 187.979 30.165 185.264 28.051 182.626 C 25.958 180.01 23.723 177.507 21.362 175.131 C 19.467 173.221 17.451 171.418 15.351 169.728 C 13.223 168.024 10.988 166.469 8.662 165.061 C 5.897 163.386 2.998 161.957 0 160.769 Z  M 267.074 430.729 C 267.095 430.75 267.117 430.757 267.145 430.771 C 267.081 430.778 267.011 430.778 266.947 430.771 M 267.074 430.729 C 267.004 430.729 266.94 430.736 266.876 430.729 C 266.897 430.75 266.926 430.764 266.947 430.771 M 168.709 319.197 C 168.702 319.19 168.694 319.168 168.687 319.161 M 168.348 2.533 C 168.355 2.512 168.362 2.505 168.369 2.498" fill-rule="evenodd" fill="rgb(255,255,255)"/></g></g></svg>