<?xml version="1.0" encoding="UTF-8" standalone="no"?><!-- Generator: Gravit.io --><svg xmlns="http://www.w3.org/2000/svg" xmlns:xlink="http://www.w3.org/1999/xlink" style="isolation:isolate" viewBox="0 0 201.494 33.333" width="201.494pt" height="33.333pt"><defs><clipPath id="_clipPath_KtDTWKv0MKICdrfF8tbtez6OlbIZiJ9a"><rect width="201.494" height="33.333"/></clipPath></defs><g clip-path="url(#_clipPath_KtDTWKv0MKICdrfF8tbtez6OlbIZiJ9a)"><g><path d=" M 138.424 19.034 C 133.116 20.146 127.816 20.482 122.519 20.625 C 117.223 20.749 111.931 20.53 106.641 20.033 C 101.352 19.534 96.064 18.902 90.773 18.701 C 85.48 18.484 80.184 18.541 74.887 18.804 C 69.588 19.061 64.288 19.413 58.993 19.457 C 53.697 19.536 48.404 19.329 43.115 18.942 C 40.468 18.769 37.824 18.552 35.177 18.41 C 32.532 18.256 29.887 18.169 27.239 18.101 C 21.947 17.97 16.652 17.904 11.355 18.064 L 11.365 17.198 C 16.657 17.421 21.952 17.417 27.248 17.35 C 29.896 17.314 32.545 17.258 35.193 17.134 C 37.841 17.025 40.493 16.84 43.141 16.697 C 48.441 16.374 53.737 16.23 59.031 16.372 C 64.325 16.478 69.615 16.894 74.905 17.214 C 80.196 17.54 85.491 17.66 90.787 17.506 C 96.084 17.366 101.387 16.797 106.687 16.362 C 111.987 15.928 117.284 15.773 122.576 15.958 C 127.869 16.165 133.16 16.564 138.44 17.738 L 138.424 19.034 Z " fill="rgb(255,255,255)"/></g><g><path d=" M 11.147 17.546 C 11.147 19.157 9.763 20.462 8.056 20.462 C 6.349 20.462 4.965 19.157 4.965 17.546 C 4.965 15.937 6.349 14.631 8.056 14.631 C 9.763 14.631 11.147 15.937 11.147 17.546 Z " fill="rgb(255,255,255)"/></g><g><path d=" M 4.648 17.546 C 4.648 18.29 4.009 18.893 3.223 18.893 C 2.435 18.893 1.795 18.29 1.795 17.546 C 1.795 16.803 2.435 16.201 3.223 16.201 C 4.009 16.201 4.648 16.803 4.648 17.546 Z " fill="rgb(255,255,255)"/></g><g><path d=" M 1.479 17.546 C 1.479 17.931 1.147 18.243 0.739 18.243 C 0.331 18.243 0 17.931 0 17.546 C 0 17.162 0.331 16.85 0.739 16.85 C 1.147 16.85 1.479 17.162 1.479 17.546 Z " fill="rgb(255,255,255)"/></g><g><path d=" M 199.244 1.394 C 200.755 4.328 201.511 7.688 201.494 11.067 C 201.476 14.451 200.654 17.847 199.14 20.928 C 198.735 21.683 198.306 22.43 197.848 23.158 L 197.1 24.208 C 196.85 24.559 196.604 24.915 196.31 25.23 C 195.734 25.87 195.206 26.559 194.55 27.127 L 193.596 28.003 C 193.276 28.296 192.914 28.532 192.574 28.8 L 191.534 29.574 L 190.424 30.247 C 190.05 30.46 189.694 30.712 189.3 30.894 L 188.13 31.451 C 187.368 31.854 186.514 32.104 185.687 32.398 C 185.272 32.542 184.835 32.615 184.411 32.724 C 183.983 32.824 183.556 32.94 183.118 32.982 L 181.81 33.155 C 181.372 33.194 180.931 33.194 180.492 33.212 L 179.832 33.232 L 179.174 33.194 C 178.736 33.162 178.296 33.143 177.859 33.098 C 176.116 32.864 174.402 32.435 172.774 31.771 C 169.543 30.414 166.643 28.206 164.594 25.347 C 164.043 24.66 163.631 23.88 163.178 23.13 C 162.964 22.748 162.799 22.34 162.607 21.946 C 162.423 21.548 162.231 21.156 162.1 20.724 C 161.964 20.299 161.79 19.886 161.69 19.45 L 161.387 18.144 L 161.215 16.815 C 161.162 16.371 161.174 15.923 161.154 15.478 C 161.142 11.91 162.354 8.347 164.606 5.583 C 165.726 4.2 167.083 3.015 168.595 2.087 C 168.983 1.87 169.348 1.612 169.756 1.436 L 170.966 0.884 C 171.394 0.739 171.819 0.582 172.252 0.452 C 172.695 0.354 173.132 0.231 173.579 0.163 C 177.163 -0.43 180.94 0.619 183.708 2.92 C 185.09 4.072 186.212 5.527 186.983 7.142 C 187.768 8.743 188.194 10.62 188.04 12.436 C 187.93 14.264 187.27 16.027 186.254 17.527 C 185.207 19.004 183.786 20.23 182.134 20.959 C 180.498 21.758 178.538 21.95 176.756 21.547 C 174.966 21.134 173.339 20.107 172.199 18.684 C 171.636 17.964 171.203 17.166 170.896 16.303 C 170.595 15.426 170.48 14.486 170.562 13.568 C 170.716 11.727 171.678 9.986 173.146 8.899 C 173.878 8.356 174.698 7.952 175.618 7.762 C 176.527 7.574 177.482 7.655 178.351 7.944 C 180.098 8.539 181.474 10.062 181.79 11.898 C 181.931 12.816 181.767 13.775 181.322 14.578 C 180.875 15.376 180.172 16.034 179.336 16.387 C 178.503 16.771 177.498 16.79 176.659 16.436 C 175.812 16.094 175.126 15.392 174.812 14.55 L 175.407 14.31 C 175.695 14.976 176.264 15.495 176.932 15.727 C 177.602 15.966 178.343 15.916 178.967 15.59 C 180.272 14.971 180.992 13.442 180.714 12.084 C 180.431 10.72 179.299 9.539 177.96 9.151 C 177.29 8.959 176.572 8.922 175.9 9.09 C 175.239 9.25 174.582 9.598 174.035 10.038 C 172.926 10.923 172.243 12.295 172.18 13.687 C 172.146 14.38 172.258 15.078 172.506 15.723 C 172.767 16.374 173.135 17.003 173.59 17.542 C 174.523 18.608 175.794 19.366 177.171 19.647 C 178.551 19.908 179.99 19.746 181.251 19.084 C 182.554 18.471 183.638 17.472 184.432 16.295 C 185.194 15.095 185.67 13.707 185.72 12.295 C 185.81 10.876 185.471 9.491 184.815 8.203 C 184.166 6.911 183.244 5.762 182.122 4.86 C 179.867 3.06 176.842 2.294 174.036 2.814 C 173.684 2.874 173.343 2.982 172.995 3.058 C 172.656 3.164 172.323 3.296 171.986 3.41 L 170.992 3.879 C 170.655 4.024 170.362 4.248 170.043 4.424 C 168.808 5.203 167.707 6.188 166.802 7.331 C 164.979 9.616 164.03 12.55 164.07 15.446 C 164.082 16.896 164.362 18.342 164.888 19.695 C 164.994 20.038 165.163 20.371 165.322 20.707 C 165.486 21.04 165.622 21.387 165.806 21.708 C 166.196 22.338 166.536 23 167.008 23.575 C 168.742 25.98 171.198 27.826 173.926 28.966 C 175.3 29.52 176.747 29.872 178.214 30.068 C 178.58 30.104 178.95 30.115 179.319 30.142 L 179.872 30.175 L 180.427 30.152 C 180.795 30.134 181.164 30.136 181.534 30.103 L 182.631 29.951 C 182.999 29.92 183.356 29.815 183.716 29.731 C 184.072 29.635 184.439 29.579 184.787 29.452 C 185.484 29.199 186.19 28.994 186.868 28.647 L 187.896 28.178 C 188.243 28.027 188.551 27.806 188.883 27.624 L 189.859 27.054 L 190.772 26.387 C 193.184 24.591 195.29 22.331 196.778 19.668 C 198.284 17.024 199.232 14.042 199.56 10.964 C 199.896 7.882 199.567 4.706 198.65 1.635 L 199.244 1.394 Z " fill="rgb(255,255,255)"/></g><g><path d=" M 137.704 27.051 C 137.079 24.362 137.152 21.482 137.857 18.746 C 138.564 16.006 139.924 13.418 141.783 11.229 C 143.668 9.07 146.048 7.303 148.717 6.189 L 149.72 5.773 L 150.756 5.454 C 151.104 5.357 151.444 5.225 151.799 5.158 L 152.863 4.946 C 153.564 4.775 154.307 4.746 155.037 4.678 C 155.403 4.645 155.773 4.675 156.14 4.674 C 156.508 4.681 156.876 4.673 157.24 4.729 C 158.713 4.834 160.145 5.223 161.529 5.709 C 162.896 6.255 164.197 6.954 165.383 7.826 C 167.727 9.587 169.625 11.97 170.704 14.709 C 171.009 15.378 171.184 16.094 171.399 16.797 C 171.495 17.15 171.545 17.514 171.619 17.873 C 171.687 18.234 171.763 18.59 171.781 18.967 C 171.947 20.451 171.844 21.969 171.476 23.415 C 170.756 26.313 169.044 28.955 166.653 30.735 C 165.461 31.627 164.12 32.311 162.703 32.755 C 161.996 32.991 161.265 33.121 160.533 33.246 C 160.157 33.275 159.78 33.317 159.401 33.333 C 159.024 33.322 158.644 33.333 158.267 33.295 C 155.239 33.039 152.395 31.413 150.627 28.981 C 149.745 27.765 149.136 26.357 148.843 24.893 C 148.537 23.435 148.579 21.83 149.075 20.394 C 149.537 18.939 150.425 17.646 151.552 16.638 C 152.699 15.654 154.097 14.95 155.583 14.694 C 157.069 14.378 158.697 14.621 160.06 15.307 C 161.427 16.006 162.54 17.17 163.173 18.557 C 163.483 19.257 163.671 19.993 163.743 20.754 C 163.808 21.526 163.709 22.313 163.453 23.041 C 162.953 24.503 161.817 25.718 160.404 26.301 C 159.7 26.59 158.952 26.75 158.168 26.715 C 157.392 26.683 156.633 26.421 155.988 26.01 C 154.693 25.17 153.889 23.654 154.008 22.101 C 154.08 21.326 154.409 20.582 154.936 20.023 C 155.46 19.466 156.165 19.077 156.913 18.961 C 157.669 18.819 158.488 19.01 159.097 19.469 C 159.713 19.918 160.125 20.63 160.208 21.375 L 159.676 21.45 C 159.58 20.851 159.224 20.313 158.731 19.987 C 158.236 19.657 157.623 19.546 157.052 19.683 C 155.865 19.918 154.969 21.011 154.919 22.17 C 154.869 23.334 155.545 24.523 156.552 25.11 C 157.057 25.405 157.631 25.579 158.209 25.581 C 158.779 25.587 159.383 25.439 159.917 25.193 C 160.997 24.702 161.831 23.73 162.167 22.614 C 162.337 22.058 162.389 21.47 162.319 20.897 C 162.24 20.315 162.069 19.73 161.812 19.198 C 161.272 18.145 160.399 17.267 159.34 16.754 C 158.275 16.258 157.072 16.093 155.911 16.369 C 154.727 16.598 153.639 17.186 152.749 17.978 C 151.881 18.797 151.204 19.825 150.873 20.966 C 150.512 22.103 150.507 23.301 150.779 24.482 C 151.043 25.666 151.559 26.787 152.288 27.747 C 153.755 29.67 156.056 30.907 158.439 31.054 C 158.735 31.077 159.035 31.058 159.333 31.069 C 159.629 31.05 159.927 31.013 160.224 30.989 C 160.825 30.874 161.429 30.766 162.008 30.563 C 163.168 30.185 164.261 29.61 165.231 28.869 C 167.176 27.389 168.545 25.202 169.104 22.846 C 169.392 21.667 169.46 20.437 169.308 19.233 C 169.295 18.931 169.224 18.627 169.165 18.322 C 169.1 18.019 169.06 17.71 168.977 17.411 C 168.788 16.821 168.648 16.214 168.383 15.653 C 167.468 13.347 165.855 11.347 163.875 9.866 C 162.873 9.134 161.772 8.554 160.623 8.094 C 159.455 7.695 158.253 7.365 157.016 7.286 C 156.711 7.237 156.4 7.247 156.091 7.245 C 155.783 7.249 155.473 7.219 155.165 7.249 C 154.548 7.314 153.933 7.335 153.312 7.477 L 152.383 7.647 C 152.071 7.699 151.776 7.815 151.471 7.897 L 150.563 8.159 L 149.684 8.513 C 147.36 9.474 145.191 10.878 143.44 12.734 C 141.676 14.571 140.299 16.795 139.404 19.225 C 138.501 21.654 138.12 24.299 138.235 26.977 L 137.704 27.051 Z " fill="rgb(255,255,255)"/></g></g></svg>