<?xml version="1.0" encoding="UTF-8" standalone="no"?><!-- Generator: Gravit.io --><svg xmlns="http://www.w3.org/2000/svg" xmlns:xlink="http://www.w3.org/1999/xlink" style="isolation:isolate" viewBox="0 0 554.316 553.837" width="554.316pt" height="553.837pt"><defs><clipPath id="_clipPath_hw6N2uTzTTEfg9mTu42bany87mgAX1fm"><rect width="554.316" height="553.837"/></clipPath></defs><g clip-path="url(#_clipPath_hw6N2uTzTTEfg9mTu42bany87mgAX1fm)"><g><path d=" M 516.17 251.455 C 495.242 239.416 497.562 205.722 505.708 185.716 C 507.244 184.987 508.767 184.21 510.258 183.327 C 511.274 182.726 512.26 182.091 513.23 181.436 C 512.111 184.424 511.199 187.503 510.386 190.707 C 506.167 207.33 510.018 225.874 514.778 241.908 C 515.84 245.486 517.046 249.015 518.316 252.52 C 517.575 252.198 516.852 251.847 516.17 251.455 Z  M 482.707 184.268 C 468.775 184.236 455.86 176.127 447.982 164.984 C 446.588 163.014 445.387 160.879 444.371 158.627 C 454.188 155.055 464.938 149.022 473.04 141.126 C 475.18 141.743 477.283 142.139 479.095 142.315 C 487.511 143.128 495.299 140.879 502.159 135.974 C 515.463 126.46 519.475 108.908 513.55 94.099 C 508.056 80.371 493.959 71.714 479.65 74.14 C 489.211 66.126 497.912 56.726 506.962 48.206 C 511.994 43.467 517.023 38.726 522.028 33.959 C 524.37 31.728 526.883 29.532 529.307 27.248 C 508.544 69.58 552.419 121.503 523.19 162.406 C 513.948 175.338 498.714 184.306 482.707 184.268 Z  M 467.26 99.546 C 483.092 95.98 481.087 119.212 476.65 127.655 C 474.911 130.966 472.635 134.004 469.996 136.78 C 467.27 135.47 464.903 133.564 463.148 130.978 C 459.938 126.242 460.806 119.392 465.788 116.306 C 471.515 112.76 474.326 118.707 473.46 123.8 C 473.442 123.91 473.584 124.03 473.67 123.922 C 475.206 121.998 475.276 120.815 475.308 118.347 C 475.331 116.494 473.135 115.734 472.619 114.222 C 472.451 113.73 472.096 113.479 471.588 113.426 C 460.516 112.264 455.578 124.938 461.01 133.58 C 462.439 135.856 464.887 137.676 467.675 139.062 C 460.534 145.667 451.324 150.554 442.482 153.588 C 435.979 132.538 444.086 104.766 467.26 99.546 Z  M 436.531 155.356 C 423.779 158.498 411.068 157.37 398.375 155.371 C 396.434 142.868 395.386 130.346 398.48 117.784 C 412.122 122.011 427.463 120.7 440.59 113.483 C 440.646 113.452 440.706 113.412 440.762 113.38 C 433.61 126.479 432.318 141.762 436.531 155.356 M 438.846 80.683 C 438.794 80.176 438.542 79.822 438.05 79.654 C 436.538 79.138 435.778 76.942 433.924 76.964 C 431.458 76.996 430.274 77.066 428.351 78.603 C 428.242 78.688 428.363 78.831 428.472 78.812 C 433.564 77.947 439.511 80.758 435.966 86.484 C 432.879 91.467 426.03 92.335 421.294 89.123 C 419.464 87.883 417.976 86.336 416.799 84.572 C 419.643 81.828 422.767 79.459 426.182 77.666 C 434.624 73.228 457.856 71.223 454.291 87.055 C 449.071 110.231 421.299 118.336 400.248 111.834 C 403.246 103.104 408.046 94.016 414.523 86.915 C 415.688 88.715 417.074 90.247 418.691 91.263 C 427.334 96.695 440.007 91.756 438.846 80.683 M 483.816 103.431 C 478.66 89.556 465.724 92.028 455.108 98.918 C 461.854 88.358 464.154 75.608 450.406 70.499 C 436.486 65.326 424.16 70.39 414.427 79.584 C 411.371 70.103 414.255 57.702 420.142 51 C 440.651 27.644 479.315 44.119 475.648 75.199 C 475.252 75.556 475.348 76.166 475.747 76.483 C 476.051 76.923 476.703 77.038 477.075 76.622 C 508.154 72.955 524.628 111.62 501.272 132.131 C 495.218 137.448 484.51 140.314 475.506 138.564 C 484.202 128.966 488.842 116.952 483.816 103.431 M 388.852 106.334 C 377.71 98.455 369.6 85.54 369.568 71.608 C 369.531 55.602 378.499 40.367 391.43 31.126 C 433.162 1.303 486.367 47.584 529.152 23.667 C 526.842 25.958 524.624 28.366 522.335 30.6 C 517.386 35.432 512.392 40.218 507.402 45.006 C 497.576 54.427 486.631 63.57 477.848 74.063 C 481.135 59.27 472.362 44.4 458.172 38.723 C 443.364 32.796 425.81 36.81 416.298 50.114 C 411.392 56.974 409.142 64.762 409.958 73.178 C 410.207 75.76 410.903 78.934 412.058 81.96 C 404.483 89.98 398.683 100.4 395.21 109.944 C 392.958 108.928 390.822 107.727 388.852 106.334 M 302.382 38.146 C 301.99 37.463 301.639 36.74 301.315 35.999 C 304.822 37.27 308.351 38.475 311.928 39.538 C 327.962 44.298 346.507 48.148 363.13 43.93 C 366.334 43.116 369.414 42.204 372.4 41.086 C 371.746 42.055 371.111 43.042 370.51 44.058 C 369.627 45.548 368.85 47.071 368.12 48.607 C 348.115 56.754 314.42 59.074 302.382 38.146 Z  M 533.563 406.496 C 553.891 386.491 554.404 352.695 549.434 326.011 C 545.127 302.88 534.99 281.439 526.584 259.546 C 528.51 259.648 530.523 259.606 532.636 259.395 C 540.466 258.614 548.426 254.051 552.007 246.91 C 555.082 240.776 555.419 231.352 550.968 225.739 C 543.156 215.888 527.2 219.302 530.21 233.356 C 530.412 234.296 531.744 233.882 531.619 232.979 C 529.166 215.33 552.76 220.388 553.067 235.658 C 553.363 250.431 537.491 256.442 524.623 254.339 C 519.955 241.652 516.062 228.76 514.402 215.247 C 513.015 203.966 513.608 191.899 517.003 181.012 C 517.36 179.87 517.776 178.747 518.232 177.639 C 531.068 166.846 538.788 151.135 540.046 134.25 C 542.784 97.463 515.827 58.239 533.276 23.26 C 534.57 21.854 535.787 20.396 536.862 18.854 C 536.959 18.715 536.983 18.563 536.96 18.419 C 536.971 18.41 536.982 18.402 536.992 18.394 C 537.387 18.076 536.904 17.436 536.48 17.655 C 536.536 17.568 536.588 17.482 536.644 17.396 C 536.928 16.964 536.25 16.436 535.922 16.844 C 535.34 17.57 534.786 18.3 534.252 19.034 C 498.362 40.427 457.667 11.434 419.586 14.27 C 402.7 15.527 386.99 23.247 376.198 36.083 C 375.088 36.539 373.967 36.955 372.824 37.312 C 361.938 40.707 349.871 41.3 338.59 39.914 C 325.078 38.254 312.184 34.36 299.498 29.692 C 297.395 16.824 303.404 0.954 318.179 1.248 C 333.448 1.555 338.507 25.15 320.859 22.696 C 319.955 22.571 319.54 23.903 320.48 24.106 C 334.535 27.115 337.948 11.159 328.098 3.347 C 322.484 -1.102 313.06 -0.766 306.927 2.308 C 299.784 5.89 295.223 13.85 294.44 21.679 C 294.23 23.792 294.19 25.806 294.291 27.731 C 272.398 19.324 250.956 9.188 227.826 4.88 C 201.142 -0.089 167.346 0.424 147.34 20.752 C 138.687 22.732 130.092 25.12 121.474 27.69 C 99.776 34.154 77.458 41.019 54.567 40.471 C 43.884 40.214 33.175 38.726 22.984 35.43 C 14.468 32.676 5.034 29.204 1.264 20.39 C 0.93 19.607 -0.093 20.216 0.007 20.915 C 2.48 38.076 29.235 43.478 43.038 45.278 C 65.326 48.187 87.576 43.634 108.946 37.544 C 119.728 34.472 130.467 31.092 141.303 28.158 C 140.783 28.928 140.272 29.71 139.784 30.523 C 132.959 41.891 129.855 57.282 138.064 68.848 C 144.651 78.126 155.626 85.764 167.383 82.034 C 176.403 79.171 185.184 66.87 178.599 57.952 C 175.682 54 167.054 47.97 162.976 53.856 C 162.708 54.243 163.326 54.723 163.63 54.364 C 166.955 50.422 173.874 56.875 175.567 59.704 C 179.823 66.819 174.579 75.1 167.496 78.119 C 153.368 84.142 137.554 68.314 136.991 54.651 C 136.568 44.383 141.068 34.323 148.026 26.404 C 157.926 23.935 167.934 21.967 178.16 21.084 C 205.948 18.684 231.854 25.271 257.982 34.148 C 258.07 34.178 258.132 34.034 258.046 33.995 C 235.654 24.243 211.952 14.972 187.099 15.462 C 176.6 15.668 166.364 16.94 156.247 18.876 C 159.038 16.828 162.003 15.088 165.055 13.736 C 180.883 6.728 198.678 5.574 215.682 8.043 C 232.151 10.435 248.227 15.158 263.782 21.012 C 274.307 24.974 284.627 29.579 295.124 33.67 C 301.603 60.928 341.936 65.514 366.078 53.488 C 360.603 68.695 362.431 85.29 372.296 99.039 C 377.819 106.735 385.148 112.371 393.328 115.884 C 389.85 128.863 390.806 141.68 392.924 154.47 C 393.222 156.264 393.542 158.059 393.876 159.852 C 395.674 160.19 397.471 160.511 399.268 160.812 C 412.25 162.999 425.256 164.039 438.431 160.508 C 441.944 168.688 447.58 176.018 455.276 181.54 C 469.026 191.406 485.62 193.234 500.827 187.759 C 488.802 211.9 493.387 252.234 520.644 258.712 C 524.736 269.21 529.342 279.531 533.303 290.054 C 539.156 305.608 543.879 321.686 546.271 338.155 C 548.742 355.158 547.586 372.954 540.579 388.78 C 539.227 391.832 537.486 394.799 535.438 397.591 C 537.374 387.474 538.646 377.236 538.854 366.736 C 539.343 341.884 530.072 318.182 520.319 295.791 C 520.282 295.706 520.138 295.767 520.167 295.855 C 529.043 321.983 535.631 347.887 533.231 375.676 C 532.348 385.903 530.379 395.911 527.911 405.812 C 519.991 412.767 509.931 417.267 499.663 416.846 C 486.002 416.283 470.174 400.468 476.196 386.34 C 479.214 379.258 487.495 374.012 494.611 378.27 C 497.439 379.963 503.894 386.882 499.951 390.207 C 499.591 390.511 500.072 391.127 500.459 390.859 C 506.346 386.783 500.314 378.155 496.363 375.236 C 487.446 368.652 475.143 377.434 472.282 386.454 C 468.55 398.21 476.19 409.186 485.467 415.772 C 497.032 423.983 512.423 420.878 523.792 414.051 C 524.604 413.564 525.386 413.054 526.156 412.535 C 523.223 423.371 519.843 434.108 516.77 444.891 C 510.682 466.26 506.128 488.51 509.036 510.799 C 510.838 524.602 516.239 551.356 533.4 553.83 C 534.098 553.93 534.707 552.906 533.924 552.572 C 525.111 548.802 521.639 539.37 518.884 530.852 C 515.588 520.66 514.1 509.952 513.844 499.27 C 513.296 476.379 520.16 454.059 526.626 432.364 C 529.195 423.744 531.583 415.15 533.563 406.496" fill="rgb(255,255,255)"/></g></g></svg>