<?xml version="1.0" encoding="UTF-8"?>
<svg width="68.227mm" height="181.18mm" version="1.1" viewBox="0 0 68.227 181.18" xmlns="http://www.w3.org/2000/svg">
 <g transform="translate(-60.785 4.3609)">
  <path d="m60.787 42.103c-0.0926-13.463 3.7777-24.907 11.383-33.658 4.279-4.9236 9.044-8.3604 14.679-10.588 9.5346-3.7683 20.323-2.6831 28.374 2.854 1.1362 0.78149 2.9126 2.2473 2.8337 2.3381-0.0121 0.01388-0.21089-0.0093-0.44186-0.05164-5.6596-1.0357-11.799-0.6704-16.93 1.0073-4.6529 1.5215-9.7841 4.7858-13.506 8.5924-0.10888 0.11133-0.36157 0.3651-0.56155 0.56391-6.7054 6.6663-10.765 16.019-11.925 27.471-0.69239 6.8372-0.24851 12.687 1.4572 19.205 1.4867 5.6807 3.7902 11.481 6.8865 17.34 2.3384 4.4247 4.5019 7.9174 10.769 17.385 1.7228 2.6025 3.9051 5.9935 5.0198 7.8001 9.2602 15.009 13.01 27.205 12.106 39.375-0.6087 8.1918-3.6752 16.939-8.6182 24.583-0.77197 1.1939-1.0862 1.6164-2.1369 2.8734-0.73543 0.87976-1.4019 1.7709-1.8512 2.4753-0.51734 0.811-0.48115 0.68962 0.17686-0.59336 4.2579-8.3019 6.9111-17.373 7.3492-25.127 0.50892-9.0081-2.25-19.219-7.8338-28.994-2.0923-3.6626-4.1806-6.513-11.965-16.331-11.423-14.408-16.455-22.597-20.335-33.095-1.9264-5.212-3.2971-10.533-4.1856-16.247-0.23949-1.5403-0.73362-7.6339-0.74427-9.1779z" fill="#fff" stroke-width=".070556"/>
 </g>
</svg>
