<?xml version="1.0" encoding="UTF-8"?>
<svg width="68.227mm" height="181.18mm" version="1.1" viewBox="0 0 68.227 181.18" xmlns="http://www.w3.org/2000/svg">
 <g transform="translate(-60.785 4.3609)">
  <path d="m68.274 88.439c0.0347 0.03455 0.67719 0.86304 1.4277 1.8411 2.5025 3.2617 5.3249 6.6246 9.5662 11.399 1.068 1.2022 2.9196 3.2861 4.1146 4.631 5.866 6.6018 7.44 8.5466 9.6394 11.91 4.468 6.8333 7.4285 14.027 8.8344 21.467 0.24567 1.3002 0.59267 5.9086 0.54296 7.2116-0.15021 3.94-0.40299 6.2349-1.0521 9.5518-1.3875 7.0901-3.6578 12.676-7.7968 19.186-0.28483 0.44794-0.56594 0.89651-0.62469 0.99683-0.27436 0.4685-0.0686-0.0266 0.34331-0.8265 4.3163-8.3796 6.924-17.307 7.3292-25.091 0.3996-7.6772-1.692-16.501-5.9066-24.918-0.81699-1.6316-1.2005-2.331-2.2406-4.0862-1.0786-1.8202-2.0306-3.2674-3.2912-5.0029-0.53459-0.73595-4.632-6.0241-6.1845-7.9817-7.2603-9.1549-10.643-13.748-13.849-18.804-0.82217-1.2965-1.0332-1.6641-0.85196-1.4841z" fill="#fff" stroke-width=".070556"/>
 </g>
</svg>
