<?xml version="1.0" encoding="UTF-8"?>
<svg width="68.227mm" height="181.18mm" version="1.1" viewBox="0 0 68.227 181.18" xmlns="http://www.w3.org/2000/svg">
 <g transform="translate(-60.785 4.3609)">
  <path d="m85.36 48.934c2e-5 -0.17505-3.1e-4 -0.79569-6.4e-4 -1.3792-4e-3 -7.3687 1.4916-14.426 4.2809-20.193 3.274-6.7694 9.5835-13.136 15.941-16.086 7.9289-3.6791 15.763-3.3615 21.634 0.8771 0.82477 0.5954 1.8399 1.4389 1.7945 1.4911-0.0196 0.02253-0.46466-0.02617-0.98902-0.10838-4.1882-0.6563-8.5615-0.54661-12.286 0.30816-5.9381 1.3627-11.059 4.4895-16.118 9.8409-6.3597 6.7279-9.9079 16.323-10.361 28.017-0.35281 9.1056 2.3212 19.055 7.992 29.735 0.25583 0.4818 0.45194 0.8912 0.43582 0.90975-0.0161 0.01858-0.49249-0.67906-1.0586-1.5502-6.0015-9.2358-9.7113-18.329-10.874-26.655-0.12817-0.91748-0.39089-4.4173-0.39084-5.2065z" fill="#fff" stroke-width=".070556"/>
 </g>
</svg>
